SplineFontDB: 3.0
FontName: TechnaSans-Regular
FullName: Techna Sans Regular
FamilyName: Techna Sans
Weight: Regular
Copyright: Copyright (c) 2019, Carl Enlund
UComments: "2019-5-11: Created with FontForge (http://fontforge.org)"
Version: 1.001
ItalicAngle: 0
UnderlinePosition: -100
UnderlineWidth: 50
Ascent: 800
Descent: 200
InvalidEm: 0
LayerCount: 3
Layer: 0 0 "Back" 1
Layer: 1 0 "Fore" 0
Layer: 2 0 "Thin" 1
XUID: [1021 637 837473831 1446149]
FSType: 0
OS2Version: 0
OS2_WeightWidthSlopeOnly: 0
OS2_UseTypoMetrics: 1
CreationTime: 1557605594
ModificationTime: 1559852690
PfmFamily: 17
TTFWeight: 400
TTFWidth: 5
LineGap: 90
VLineGap: 0
OS2TypoAscent: 0
OS2TypoAOffset: 1
OS2TypoDescent: 0
OS2TypoDOffset: 1
OS2TypoLinegap: 0
OS2WinAscent: 0
OS2WinAOffset: 1
OS2WinDescent: 0
OS2WinDOffset: 1
HheadAscent: 0
HheadAOffset: 1
HheadDescent: 0
HheadDOffset: 1
OS2Vendor: 'PfEd'
Lookup: 1 0 0 "'ss01' Style Set 1 in Latin lookup 1" { "'ss01' Style Set 1 in Latin lookup 1-1"  } ['ss01' ('DFLT' <'dflt' > 'latn' <'dflt' > ) ]
Lookup: 4 0 1 "'liga' Standard Ligatures in Latin lookup 0" { "'liga' Standard Ligatures in Latin lookup 0-1"  } ['liga' ('DFLT' <'dflt' > 'latn' <'dflt' > ) ]
Lookup: 258 0 0 "'kern' Horizontal Kerning in Latin lookup 0" { "'kern' Horizontal Kerning in Latin lookup 0-1" [150,15,0] } ['kern' ('DFLT' <'dflt' > 'latn' <'dflt' > ) ]
MarkAttachClasses: 2
"lcommaaccent" 25 Lcommaaccent lcommaaccent
DEI: 91125
LangName: 1033 "" "" "" "" "" "" "" "" "" "" "" "" "" "This Font Software is licensed under the SIL Open Font License, Version 1.1.+AAoACgAA" "http://scripts.sil.org/OFL"
Encoding: Custom
UnicodeInterp: none
NameList: Adobe Glyph List
DisplaySize: -128
AntiAlias: 1
FitToEm: 0
WinInfo: 30 15 5
BeginPrivate: 0
EndPrivate
Grid
-1000 -165 m 0
 2000 -165 l 1024
  Named: "Descender"
-1000 503 m 0
 2000 503 l 1024
  Named: "X-height"
-1000 688 m 0
 2000 688 l 1024
  Named: "Cap"
-1000 718 m 0
 2000 718 l 1024
  Named: "Ascender"
-1000 -125 m 0
 2000 -125 l 1024

StartChar: D
Encoding: 36 68 0
Width: 688
VWidth: 0
Flags: HMW
AnchorPoint: "Top" 323 744 basechar 0
LayerCount: 3
Fore
SplineSet
314 121 m 1
 314 0 l 1
 140 0 l 1
 140 121 l 1
 314 121 l 1
324 688 m 1
 318 567 l 1
 140 567 l 1
 140 688 l 1
 324 688 l 1
58 0 m 1
 58 688 l 1
 192 688 l 1
 192 0 l 1
 58 0 l 1
324 688 m 1
 549.057617188 688 670 540.865234375 670 350 c 3
 670 152.017578125 545.622070312 0 314 0 c 1
 314 121 l 1
 463.310546875 121 534 221.337890625 534 346 c 3
 534 468.446289062 464.620117188 567 318 567 c 1
 324 688 l 1
EndSplineSet
Validated: 5
EndChar

StartChar: E
Encoding: 37 69 1
Width: 547
VWidth: 0
Flags: HMW
AnchorPoint: "Ogonek" 385 0 basechar 0
AnchorPoint: "Top" 296 744 basechar 0
LayerCount: 3
Fore
SplineSet
123 413.916992188 m 1
 453 413.916992188 l 1
 421 293 l 1
 123 292.916992188 l 1
 123 413.916992188 l 1
123 122 m 5
 512 122 l 5
 545 0 l 5
 123 0 l 5
 123 122 l 5
123 688 m 1
 523 688 l 1
 491 566 l 1
 123 566 l 1
 123 688 l 1
58 0 m 1
 58 688 l 1
 192 688 l 1
 192 0 l 1
 58 0 l 1
EndSplineSet
EndChar

StartChar: C
Encoding: 35 67 2
Width: 602
VWidth: 0
Flags: HMWO
AnchorPoint: "Top" 376 744 basechar 0
AnchorPoint: "Cedilla" 387 0 basechar 0
LayerCount: 3
Fore
SplineSet
551 544 m 1
 520.72972973 555.44 474.378378378 570 411 570 c 3
 300.296875 570 155 517.692382812 155 347 c 3
 155 179.723632812 288.494140625 113 419 113 c 3
 479.19047619 113 537.5 127.424242424 577 147 c 1
 577 19 l 1
 546.593439276 4.55563038793 486.29243608 -11 411 -11 c 3
 235.42578125 -11 18 71.8342784535 18 339 c 3
 18 629.799382242 264.901367188 697 430 697 c 3
 501.342713156 697 558.624831211 681.211222331 584 672 c 1
 551 544 l 1
EndSplineSet
EndChar

StartChar: G
Encoding: 39 71 3
Width: 691
VWidth: 0
Flags: HMW
AnchorPoint: "Bottom" 389 -44 basechar 0
AnchorPoint: "Top" 387 744 basechar 0
LayerCount: 3
Back
SplineSet
551 545 m 5
 520.72972973 556 474.378378378 570 411 570 c 7
 300.296875 570 155 519.692382812 155 347 c 7
 155 177.723632812 287.494140625 113 419 113 c 7
 479.952380952 113 539 127.424242424 579 147 c 5
 579 19 l 5
 548.22709517 4.55563038793 487.199573864 -11 411 -11 c 7
 238.42578125 -11 18 72.3076171875 18 341 c 7
 18 630.174804688 264.901367188 697 430 697 c 7
 501.342713156 697 558.624831211 681.842773438 584 673 c 5
 551 545 l 5
EndSplineSet
Fore
SplineSet
592 541 m 1
 566 550.310546875 495 571 418 571 c 3
 303.630859375 571 155 523.383789062 155 347 c 3
 155 180 280.211914062 112 429 112 c 3
 489.098159509 112 555.646496357 128.59375 587 145 c 1
 635 18 l 1
 591.046511628 4.037109375 507.046511628 -11 425 -11 c 3
 227.551757812 -11 18 75.7607421875 18 341 c 3
 18 631 267.224609375 697 429 697 c 3
 525.09765625 697 592.650390625 680 625 670 c 1
 592 541 l 1
506 18 m 1
 506 350 l 1
 635 350 l 1
 635 18 l 1
 506 18 l 1
372 400 m 1
 635 400 l 1
 635 280 l 1
 340 280 l 1
 372 400 l 1
EndSplineSet
EndChar

StartChar: T
Encoding: 52 84 4
Width: 565
VWidth: 0
Flags: HMW
AnchorPoint: "Bottom" 293 -44 basechar 0
AnchorPoint: "Cedilla" 293 0 basechar 0
AnchorPoint: "Top" 292 744 basechar 0
LayerCount: 3
Fore
SplineSet
563 688 m 5
 563 566 l 5
 -6 566 l 5
 26 688 l 5
 563 688 l 5
225 0 m 5
 225 639 l 5
 359 639 l 5
 359 0 l 5
 225 0 l 5
EndSplineSet
EndChar

StartChar: H
Encoding: 40 72 5
Width: 658
VWidth: 0
Flags: HMW
LayerCount: 3
Fore
SplineSet
118 413.916992188 m 1
 540 413.916992188 l 1
 540 293 l 1
 118 292.916992188 l 1
 118 413.916992188 l 1
466 0 m 1
 466 688 l 1
 600 688 l 1
 600 0 l 1
 466 0 l 1
58 0 m 1
 58 688 l 1
 192 688 l 1
 192 0 l 1
 58 0 l 1
EndSplineSet
EndChar

StartChar: N
Encoding: 46 78 6
Width: 670
VWidth: 0
Flags: HMW
AnchorPoint: "Bottom" 338 -44 basechar 0
AnchorPoint: "Top" 335 744 basechar 0
LayerCount: 3
Fore
SplineSet
115 654 m 5
 151 688 l 1
 229 688 l 1
 568 34 l 1
 534 0 l 1
 455 0 l 1
 115 654 l 5
480 0 m 1
 480 688 l 1
 612 688 l 1
 612 0 l 1
 480 0 l 1
58 0 m 1
 58 688 l 1
 190 688 l 1
 190 0 l 1
 58 0 l 1
EndSplineSet
EndChar

StartChar: A
Encoding: 33 65 7
Width: 643
VWidth: 0
Flags: HMW
AnchorPoint: "Ogonek" 531 0 basechar 0
AnchorPoint: "Top" 322 744 basechar 0
LayerCount: 3
Fore
SplineSet
501 0 m 1
 287 688 l 1
 422 688 l 1
 640 0 l 1
 501 0 l 1
3 0 m 1
 226 688 l 5
 355 688 l 5
 138 0 l 1
 3 0 l 1
114 268 m 1
 530 268 l 1
 530 154 l 1
 114 154 l 1
 114 268 l 1
EndSplineSet
EndChar

StartChar: B
Encoding: 34 66 8
Width: 587
VWidth: 0
Flags: HMW
LayerCount: 3
Fore
SplineSet
327 117 m 1
 336 0 l 1
 123 0 l 1
 123 117 l 1
 327 117 l 1
399 406 m 1
 399 292 l 1
 123 292 l 1
 123 406 l 1
 399 406 l 1
348 372 m 1
 478.246376812 372 557 293.446327684 557 196 c 3
 557 83 478 0 336 0 c 1
 327 117 l 1
 387 117 417 155.556818182 417 204 c 3
 417 253.11627907 387 292 327 292 c 1
 348 372 l 1
332 688 m 1
 322 569 l 1
 123 569 l 1
 123 688 l 1
 332 688 l 1
58 0 m 1
 58 688 l 1
 192 688 l 1
 192 0 l 1
 58 0 l 1
332 688 m 1
 467.346153846 688 539 609 539 511 c 3
 539 415.431137725 474.648351648 343 356 343 c 1
 322 406 l 1
 377.325301205 406 404 440 404 487 c 3
 404 534 377.325301205 569 322 569 c 1
 332 688 l 1
EndSplineSet
EndChar

StartChar: F
Encoding: 38 70 9
Width: 521
VWidth: 0
Flags: HMW
LayerCount: 3
Fore
SplineSet
123 406.916992188 m 1
 449 406.916992188 l 1
 417 286 l 1
 123 286 l 1
 123 406.916992188 l 1
  Spiro
    123 406.917 v
    449 406.917 v
    417 286 v
    123 286 v
    0 0 z
  EndSpiro
123 688 m 1
 523 688 l 1
 490 566 l 1
 123 566 l 1
 123 688 l 1
58 0 m 1
 58 688 l 1
 192 688 l 1
 192 0 l 1
 58 0 l 1
  Spiro
    58 0 v
    58 688 v
    192 688 v
    192 0 v
    0 0 z
  EndSpiro
EndSplineSet
Validated: 5
EndChar

StartChar: I
Encoding: 41 73 10
Width: 260
VWidth: 0
Flags: HMW
AnchorPoint: "Ogonek" 104 0 basechar 0
AnchorPoint: "Top" 130 744 basechar 0
LayerCount: 3
Fore
SplineSet
63 0 m 1
 63 688 l 1
 197 688 l 1
 197 0 l 1
 63 0 l 1
EndSplineSet
EndChar

StartChar: L
Encoding: 44 76 11
Width: 513
VWidth: 0
Flags: HMW
AnchorPoint: "Bottom" 287 -44 basechar 0
AnchorPoint: "Caron" 339 688 basechar 0
AnchorPoint: "Top" 126 744 basechar 0
LayerCount: 3
Fore
SplineSet
58 0 m 1
 58 688 l 1
 192 688 l 1
 192 0 l 1
 58 0 l 1
123 0 m 5
 123 122 l 5
 515 122 l 5
 484 0 l 5
 123 0 l 5
EndSplineSet
EndChar

StartChar: M
Encoding: 45 77 12
Width: 765
VWidth: 0
Flags: HMW
LayerCount: 3
Fore
SplineSet
573 0 m 1
 573 688 l 1
 707 688 l 1
 707 0 l 1
 573 0 l 1
334 243 m 1
 334 288 l 1
 540 688 l 1
 654 688 l 5
 437 243 l 1
 334 243 l 1
330 243 m 1
 108 688 l 1
 227 688 l 1
 433 295 l 1
 433 243 l 1
 330 243 l 1
58 0 m 1
 58 688 l 1
 192 688 l 1
 192 0 l 1
 58 0 l 1
EndSplineSet
EndChar

StartChar: O
Encoding: 47 79 13
Width: 784
VWidth: 0
Flags: HMW
AnchorPoint: "Top" 392 744 basechar 0
LayerCount: 3
Fore
SplineSet
392 705 m 3
 636.69140625 705 766 538.086914062 766 346 c 3
 766 151.690429688 636.69140625 -17 392 -17 c 3
 147.30859375 -17 18 151.690429688 18 346 c 3
 18 538.086914062 147.30859375 705 392 705 c 3
392 583 m 3
 236.582527737 583 155 468.483193277 155 346 c 3
 155 221.449424555 236.582527737 105 392 105 c 3
 547.417472263 105 629 221.449424555 629 346 c 3
 629 468.483193277 547.417472263 583 392 583 c 3
EndSplineSet
EndChar

StartChar: P
Encoding: 48 80 14
Width: 562
VWidth: 0
Flags: HMW
LayerCount: 3
Fore
SplineSet
319 381 m 5
 319 261 l 1
 140 261 l 1
 140 381 l 5
 319 381 l 5
332 688 m 1
 322 567 l 1
 140 567 l 1
 140 688 l 1
 332 688 l 1
58 0 m 1
 58 688 l 1
 192 688 l 1
 192 0 l 1
 58 0 l 1
332 688 m 1
 475.459077592 688 549 596.690429688 549 481 c 3
 549 354.114257812 471.022780697 261 319 261 c 1
 319 381 l 5
 384.461914062 381 413 422.958007812 413 476 c 3
 413 526.419921875 385.372930113 567 322 567 c 1
 332 688 l 1
EndSplineSet
EndChar

StartChar: Q
Encoding: 49 81 15
Width: 784
VWidth: 0
Flags: HMW
LayerCount: 3
Fore
SplineSet
637 -71 m 5
 358 239 l 5
 449 316 l 5
 728 6 l 5
 637 -71 l 5
EndSplineSet
Refer: 13 79 N 1 0 0 1 -2 0 2
EndChar

StartChar: R
Encoding: 50 82 16
Width: 577
VWidth: 0
Flags: HMW
AnchorPoint: "Bottom" 297 -44 basechar 0
AnchorPoint: "Top" 283 744 basechar 0
LayerCount: 3
Fore
SplineSet
365 382 m 1
 365 268 l 1
 140 268 l 1
 140 382 l 1
 365 382 l 1
334 688 m 1
 323 567 l 1
 140 567 l 1
 140 688 l 1
 334 688 l 1
58 0 m 1
 58 688 l 1
 192 688 l 1
 192 0 l 1
 58 0 l 1
334 688 m 1
 475.380148329 688 549 599.302734375 549 483 c 3
 549 360.708007812 476.212890625 268 309 268 c 1
 320 382 l 1
 384.765861092 382 413 422.958186324 413 476 c 3
 413 526.419292535 385.676639766 567 323 567 c 1
 334 688 l 1
400 0 m 1
 253 316 l 1
 400 316 l 5
 549 0 l 1
 400 0 l 1
EndSplineSet
EndChar

StartChar: U
Encoding: 53 85 17
Width: 632
VWidth: 0
Flags: HMW
AnchorPoint: "Ogonek" 349 1 basechar 0
AnchorPoint: "Top" 315 744 basechar 0
LayerCount: 3
Fore
SplineSet
190 258 m 2
 190 155.568974799 231.829983619 107 316 107 c 3
 400.170016381 107 442 155.568974799 442 258 c 2
 442 688 l 1
 576 688 l 1
 576 241 l 2
 576 76.3013807219 486.106362039 -16 316 -16 c 3
 145.893637961 -16 56 76.3013807219 56 241 c 2
 56 688 l 1
 190 688 l 1
 190 258 l 2
EndSplineSet
EndChar

StartChar: V
Encoding: 54 86 18
Width: 631
VWidth: 0
Flags: HMW
LayerCount: 3
Fore
SplineSet
275 0 m 5
 480 688 l 1
 625 688 l 1
 402 0 l 5
 275 0 l 5
225 0 m 5
 6 688 l 1
 155 688 l 1
 356 0 l 5
 225 0 l 5
EndSplineSet
EndChar

StartChar: Z
Encoding: 58 90 19
Width: 541
VWidth: 0
Flags: HMW
AnchorPoint: "Top" 291 744 basechar 0
LayerCount: 3
Fore
SplineSet
19 15 m 1
 101 121 l 1
 543 121 l 1
 509 0 l 1
 19 0 l 1
 19 15 l 1
527 673 m 5
 444 567 l 1
 21 567 l 1
 55 688 l 1
 527 688 l 1
 527 673 l 5
19 15 m 1
 369 661 l 5
 527 673 l 5
 177 29 l 1
 19 15 l 1
EndSplineSet
EndChar

StartChar: W
Encoding: 55 87 21
Width: 919
VWidth: 0
Flags: HMW
LayerCount: 3
Fore
SplineSet
623 0 m 1
 759 688 l 1
 898 688 l 1
 746 0 l 1
 623 0 l 1
584 0 m 1
 409 688 l 1
 533 688 l 1
 708 0 l 1
 584 0 l 1
213 0 m 1
 390 688 l 1
 508 688 l 1
 330 0 l 1
 213 0 l 1
171 0 m 1
 21 688 l 1
 164 688 l 1
 298 0 l 1
 171 0 l 1
EndSplineSet
EndChar

StartChar: Y
Encoding: 57 89 22
Width: 561
VWidth: 0
Flags: HMW
AnchorPoint: "Top" 281 744 basechar 0
LayerCount: 3
Fore
SplineSet
214 0 m 1
 214 328 l 1
 348 328 l 1
 348 0 l 1
 214 0 l 1
224 250 m 1
 416 688 l 5
 566 688 l 1
 343 243 l 1
 224 250 l 1
217 241 m 1
 -5 688 l 1
 149 688 l 1
 341 253 l 1
 217 241 l 1
EndSplineSet
EndChar

StartChar: X
Encoding: 56 88 23
Width: 594
VWidth: 0
Flags: HMW
LayerCount: 3
Back
SplineSet
147 0 m 1
 -7 0 l 1
 435 688 l 1
 588 688 l 1
 147 0 l 1
444 0 m 1
 10 688 l 1
 168 688 l 1
 601 0 l 1
 444 0 l 1
EndSplineSet
Fore
SplineSet
148 0 m 1
 -7 0 l 1
 206.015625 356.854492188 l 1
 10 688 l 1
 167 688 l 1
 299.1953125 453.426757812 l 1
 434 688 l 1
 588 688 l 1
 388.020507812 358.194335938 l 1
 601 0 l 1
 445 0 l 1
 294.840820312 261.62109375 l 1
 148 0 l 1
EndSplineSet
EndChar

StartChar: S
Encoding: 51 83 24
Width: 501
VWidth: 0
Flags: HMW
AnchorPoint: "Bottom" 260 -44 basechar 0
AnchorPoint: "Cedilla" 269 0 basechar 0
AnchorPoint: "Top" 275 744 basechar 0
LayerCount: 3
Fore
SplineSet
459 666 m 1
 428 540 l 1
 369.390728477 568.8 322.701986755 576 278 576 c 3
 210 576 167 553.306666667 167 502 c 3
 167 461 191 447 258 419 c 2
 316 395 l 2
 421.1953125 351.470703125 483 304 483 196 c 3
 483 63 389 -10 239 -10 c 3
 161 -10 89 8.22448979592 40 37 c 1
 40 172 l 1
 100 132.892307693 171 110 248 110 c 3
 314 110 349 133.703703704 349 190 c 3
 349 228 319 246 245 277 c 2
 181 304 l 2
 99 339 33 376 33 499 c 3
 33 621 128 698 292 698 c 3
 352.636904762 698 420.232142857 685.612903226 459 666 c 1
EndSplineSet
EndChar

StartChar: K
Encoding: 43 75 25
Width: 599
VWidth: 0
Flags: HMW
AnchorPoint: "Bottom" 313 -44 basechar 0
LayerCount: 3
Fore
SplineSet
165 358 m 1
 332 358 l 1
 611 0 l 1
 440 0 l 1
 165 358 l 1
166 349 m 1
 438 688 l 5
 600 688 l 5
 327 349 l 1
 166 349 l 1
58 0 m 1
 58 688 l 1
 192 688 l 1
 192 0 l 1
 58 0 l 1
EndSplineSet
EndChar

StartChar: J
Encoding: 42 74 26
Width: 482
VWidth: 0
Flags: HMW
AnchorPoint: "Ogonek" 385 0 basechar 0
AnchorPoint: "Top" 296 744 basechar 0
LayerCount: 3
Fore
SplineSet
362 688 m 1
 362 566 l 1
 66 566 l 5
 98 688 l 5
 362 688 l 1
33 157 m 1
 76.5 129.5 126.943661972 112 181 112 c 3
 249.44859813 112 292 148 292 228 c 2
 292 688 l 1
 426 688 l 1
 426 216 l 2
 426 65.3571938897 341.332601261 -10 188 -10 c 3
 127.033333333 -10 69.1666666667 5.83333333333 33 28 c 1
 33 157 l 1
EndSplineSet
EndChar

StartChar: o
Encoding: 79 111 27
Width: 584
VWidth: 0
Flags: HMW
AnchorPoint: "Top" 292 578 basechar 0
LayerCount: 3
Fore
SplineSet
292 518 m 3
 463.567382812 518 562 402 562 252 c 3
 562 101 463.567382812 -15 292 -15 c 3
 120.432617188 -15 22 101 22 252 c 3
 22 402 120.432617188 518 292 518 c 3
292 404 m 3
 200.461914062 404 152 334.092773438 152 252 c 3
 152 169.913085938 200.461914062 99 292 99 c 3
 383.538085938 99 432 169.913085938 432 252 c 3
 432 334.092773438 383.538085938 404 292 404 c 3
EndSplineSet
Layer: 2
SplineSet
292 504 m 3
 451.494140625 504 543 391.052734375 543 245 c 7
 543 97.958984375 451.494140625 -15 292 -15 c 3
 132.505859375 -15 41 97.958984375 41 245 c 3
 41 391.052734375 132.505859375 504 292 504 c 3
292 451 m 3
 165.154296875 451 98 356.2578125 98 245 c 3
 98 133.94140625 165.154296875 38 292 38 c 3
 418.845703125 38 486 133.94140625 486 245 c 7
 486 356.2578125 418.845703125 451 292 451 c 3
EndSplineSet
EndChar

StartChar: i
Encoding: 73 105 28
Width: 233
VWidth: 0
Flags: HMW
AnchorPoint: "Ogonek" 92 0 basechar 0
LayerCount: 3
Fore
SplineSet
50 574 m 5
 50 700 l 5
 183 700 l 1
 183 574 l 1
 50 574 l 5
52 0 m 1
 52 503 l 1
 181 503 l 1
 181 0 l 1
 52 0 l 1
EndSplineSet
EndChar

StartChar: hyphen
Encoding: 13 45 29
Width: 370
VWidth: 0
Flags: HMW
LayerCount: 3
Fore
SplineSet
336 368 m 5
 336 246 l 5
 22 246 l 1
 54 368 l 1
 336 368 l 5
EndSplineSet
Validated: 1
EndChar

StartChar: l
Encoding: 76 108 30
Width: 237
VWidth: 0
Flags: HMW
AnchorPoint: "Bottom" 119 -44 basechar 0
AnchorPoint: "Caron" 247 688 basechar 0
AnchorPoint: "Top" 119 759 basechar 0
LayerCount: 3
Fore
SplineSet
54 0 m 1
 54 718 l 1
 183 718 l 1
 183 0 l 1
 54 0 l 1
EndSplineSet
EndChar

StartChar: n
Encoding: 78 110 31
Width: 540
VWidth: 0
Flags: HMW
AnchorPoint: "Bottom" 277 -44 basechar 0
AnchorPoint: "Top" 271 574 basechar 0
LayerCount: 3
Fore
SplineSet
52 0 m 1
 52 503 l 1
 177 503 l 1
 178 360 l 1
 181 360 l 1
 181 0 l 1
 52 0 l 1
158 335 m 5
 158 441.868493368 224.16015625 512 327 512 c 3
 431.403320312 512 494 440.224411868 494 331 c 2
 494 0 l 1
 365 0 l 1
 365 297 l 2
 365 355.999465461 336.674804688 395 278 395 c 3
 216.6328125 395 181 355.296938296 181 282 c 5
 158 335 l 5
EndSplineSet
Layer: 2
SplineSet
70 0 m 1
 70 493 l 5
 120 493 l 5
 121 350 l 5
 124 350 l 5
 124 0 l 1
 70 0 l 1
111 344 m 5
 111 439.396484375 184.4765625 502 297 502 c 7
 409.029296875 502 475 426.990234375 475 314 c 6
 475 0 l 1
 420 0 l 1
 420 296 l 6
 420 396 375.395507812 456 283 456 c 7
 182.408203125 456 124 396.62109375 124 287 c 5
 111 344 l 5
EndSplineSet
EndChar

StartChar: h
Encoding: 72 104 32
Width: 540
VWidth: 0
Flags: HMW
LayerCount: 3
Fore
SplineSet
158 335 m 5
 158 441.868493368 224.16015625 512 327 512 c 3
 431.403320312 512 494 440.224411868 494 331 c 2
 494 0 l 1
 365 0 l 1
 365 297 l 2
 365 355.999465461 336.674804688 395 278 395 c 3
 216.6328125 395 181 355.296938296 181 282 c 5
 158 335 l 5
52 0 m 1
 52 718 l 1
 181 718 l 1
 181 0 l 1
 52 0 l 1
EndSplineSet
EndChar

StartChar: a
Encoding: 65 97 33
Width: 483
VWidth: 0
Flags: HMW
AnchorPoint: "Ogonek" 338 0 basechar 0
AnchorPoint: "Top" 239 574 basechar 0
LayerCount: 3
Fore
SplineSet
311 319 m 1
 311 373.65060241 266.221238938 403 196 403 c 3
 135.560888671 403 89.5031847134 389.125 44 366 c 1
 73 485 l 1
 106 500 161.800375405 512 215 512 c 3
 362.628711822 512 438 446.138671875 438 327 c 1
 311 319 l 1
438 327 m 1
 438 0 l 1
 317 0 l 1
 316 143 l 1
 311 143 l 1
 311 319 l 1
 438 327 l 1
151 158 m 7
 151 122.086996823 171.390459947 95 219 95 c 3
 274.328293011 95 311 132.209387942 311 194 c 1
 328 149 l 1
 328 53.9453375401 270.201853503 -8 183 -8 c 3
 84.2392578125 -8 22 57.4448638092 22 142 c 7
 22 282.299303023 143.949453162 300.162208268 244.7890625 309.006835938 c 2
 325 316 l 1
 325 229 l 1
 230.8515625 219.999023438 l 2
 179.974167757 215.055195525 151 197.823718826 151 158 c 7
EndSplineSet
Layer: 2
SplineSet
363 319 m 1
 363 404.228515625 314.083007812 450 231 450 c 3
 156.646484375 450 114.740234375 428.48828125 74 401 c 1
 90 464 l 1
 130.1796875 488.516601562 178.200195312 502 237 502 c 3
 351.41796875 502 418 438.72265625 418 332 c 1
 363 319 l 1
  Spiro
    363 319 v
    347.272 390.784 o
    302.089 435.007 o
    231 450 o
    166.36 443.417 o
    116.243 425.899 o
    74 401 v
    90 464 v
    132.856 484.731 o
    181.736 497.605 o
    237 502 o
    334.698 481.682 o
    396.543 423.431 o
    418 332 v
    0 0 z
  EndSpiro
418 332 m 1
 418 0 l 1
 369 0 l 1
 368 143 l 1
 363 143 l 1
 363 319 l 1
 418 332 l 1
  Spiro
    418 332 v
    418 0 v
    369 0 v
    368 143 v
    363 143 v
    363 319 v
    0 0 z
  EndSpiro
102 141 m 3
 102 80.58203125 147.383789062 42 221 42 c 3
 309.07421875 42 363 96.4541015625 363 198 c 1
 380 149 l 1
 380 54.55078125 306.65625 -7 212 -7 c 3
 116.98828125 -7 45 47.7880859375 45 135 c 3
 45 252.836914062 155.174804688 270.96484375 261 281 c 2
 377 292 l 1
 377 249 l 1
 247.0625 236.9921875 l 2
 159.823242188 228.930664062 102 204.56640625 102 141 c 3
  Spiro
    102 141 o
    116.464 88.5248 o
    157.483 54.2165 o
    221 42 o
    296.896 59.8433 o
    345.791 112.494 o
    363 198 v
    380 149 v
    357.522 66.6475 o
    297.55 12.4179 o
    212 -7 o
    126.55 10.4004 o
    67.14 59.4876 o
    45 135 o
    77.4225 222.932 o
    158.062 264.9 o
    261 281 [
    377 292 v
    377 249 v
    247.062 236.992 ]
    170.745 222.669 o
    120.187 192.307 o
    0 0 z
  EndSpiro
EndSplineSet
Substitution2: "'ss01' Style Set 1 in Latin lookup 1-1" a.ss01
EndChar

StartChar: u
Encoding: 85 117 34
Width: 536
VWidth: 0
Flags: HMW
AnchorPoint: "Ogonek" 382 1 basechar 0
AnchorPoint: "Top" 268 574 basechar 0
LayerCount: 3
Fore
SplineSet
484 503 m 1
 484 0 l 1
 361 0 l 1
 360 143 l 1
 355 143 l 1
 355 503 l 1
 484 503 l 1
372 155 m 5
 372 52.9619140625 316.180664062 -9 214 -9 c 3
 107.840820312 -9 46 62.97717148 46 172 c 2
 46 503 l 1
 175 503 l 1
 175 205 l 2
 175 147.203629032 202.674804688 109 260 109 c 3
 320.1015625 109 355 146.162109375 355 224 c 5
 372 155 l 5
EndSplineSet
EndChar

StartChar: b
Encoding: 66 98 35
Width: 602
VWidth: 0
Flags: HMW
LayerCount: 3
Fore
SplineSet
348 -12 m 3
 223.198660858 -12 150 76.889451101 150 188 c 1
 150 314 l 1
 150 425.152222938 222.421910604 515 350 515 c 3
 490.671875 515 580 400.303710938 580 251 c 3
 580 102.69140625 490.673828125 -12 348 -12 c 3
315 98 m 7
 403.26953125 98 450 166.34 450 251 c 3
 450 335.649006622 403.26953125 405 315 405 c 3
 226.73046875 405 180 335.649006622 180 251 c 3
 180 166.34 226.73046875 98 315 98 c 7
181 143 m 1
 178 143 l 1
 177 0 l 1
 52 0 l 1
 52 718 l 1
 181 718 l 1
 181 302 l 1
 180 302 l 1
 180 202 l 1
 181 202 l 1
 181 143 l 1
EndSplineSet
EndChar

StartChar: d
Encoding: 68 100 36
Width: 602
VWidth: 0
Flags: HMW
AnchorPoint: "Caron" 614 688 basechar 0
LayerCount: 3
Fore
SplineSet
254 515 m 3
 378.801757812 515 452 426.110351562 452 315 c 1
 452 189 l 1
 452 77.84765625 379.578125 -12 252 -12 c 3
 111.328125 -12 22 102.696289062 22 252 c 3
 22 400.30859375 111.326171875 515 254 515 c 3
287 405 m 3
 198.73046875 405 152 336.106445312 152 252 c 3
 152 167.900390625 198.73046875 98 287 98 c 7
 375.26953125 98 422 167.900390625 422 252 c 3
 422 336.106445312 375.26953125 405 287 405 c 3
421 143 m 1
 421 202 l 1
 422 202 l 1
 422 302 l 1
 421 302 l 1
 421 718 l 1
 550 718 l 1
 550 0 l 1
 425 0 l 1
 424 143 l 1
 421 143 l 1
EndSplineSet
EndChar

StartChar: p
Encoding: 80 112 37
Width: 602
VWidth: 0
Flags: HMW
AnchorPoint: "Top" 292 578 basechar 0
LayerCount: 3
Fore
SplineSet
348 -12 m 3
 223.198660858 -12 150 76.889451101 150 188 c 1
 150 314 l 1
 150 425.152222938 222.421910604 515 350 515 c 3
 490.671875 515 580 400.303710938 580 251 c 3
 580 102.69140625 490.673828125 -12 348 -12 c 3
315 98 m 7
 403.26953125 98 450 166.893333333 450 251 c 3
 450 335.099337748 403.26953125 405 315 405 c 3
 226.73046875 405 180 335.099337748 180 251 c 3
 180 166.893333333 226.73046875 98 315 98 c 7
181 360 m 1
 181 301 l 1
 180 301 l 1
 180 201 l 1
 181 201 l 1
 181 -165 l 1
 52 -165 l 1
 52 503 l 1
 177 503 l 1
 178 360 l 1
 181 360 l 1
EndSplineSet
EndChar

StartChar: q
Encoding: 81 113 38
Width: 602
VWidth: 0
Flags: HMW
LayerCount: 3
Fore
SplineSet
254 515 m 3
 378.801757812 515 452 426.110351562 452 315 c 1
 452 189 l 1
 452 77.84765625 379.578125 -12 252 -12 c 3
 111.328125 -12 22 102.696289062 22 252 c 3
 22 400.30859375 111.326171875 515 254 515 c 3
287 405 m 3
 198.73046875 405 152 336.65977719 152 252 c 3
 152 167.350719975 198.73046875 98 287 98 c 7
 375.26953125 98 422 167.350719975 422 252 c 3
 422 336.65977719 375.26953125 405 287 405 c 3
421 360 m 1
 424 360 l 1
 425 503 l 1
 550 503 l 1
 550 -165 l 1
 421 -165 l 1
 421 201 l 1
 422 201 l 1
 422 301 l 1
 421 301 l 1
 421 360 l 1
EndSplineSet
EndChar

StartChar: t
Encoding: 84 116 39
Width: 349
VWidth: 0
Flags: HMW
AnchorPoint: "Bottom" 205 -44 basechar 0
AnchorPoint: "Caron" 379 688 basechar 0
AnchorPoint: "Cedilla" 204 0 basechar 0
LayerCount: 3
Fore
SplineSet
326 396 m 1
 -7 396 l 1
 -7 420 l 5
 184 617 l 1
 184 503 l 1
 326 503 l 1
 326 396 l 1
70 150 m 2
 70 425 l 1
 184 617 l 1
 199 617 l 1
 199 175 l 2
 199 121 220.38671875 107 267 107 c 3
 290.10546875 107 310.782226562 112.012695312 331 121 c 1
 331 12 l 1
 313.733398438 1.2001953125 275.4765625 -6 243 -6 c 3
 125.956054688 -6 70 38.423828125 70 150 c 2
EndSplineSet
EndChar

StartChar: e
Encoding: 69 101 40
Width: 534
VWidth: 0
Flags: HMW
AnchorPoint: "Ogonek" 361 0 basechar 0
AnchorPoint: "Top" 277 574 basechar 0
LayerCount: 3
Fore
SplineSet
92 297 m 1
 444 297 l 1
 444 204 l 1
 92 204 l 1
 92 297 l 1
484 23 m 1
 445.555664062 1.59459459459 376.619140625 -13 311 -13 c 3
 121 -13 22 92 22 252 c 3
 22 394 115.638671875 517 281 517 c 3
 427.094726562 517 511 403.545898438 511 267 c 3
 511 246 510 224 507 204 c 1
 379 204 l 1
 382 224 384 246 384 266 c 3
 384 354.813303413 348.935546875 408 276 408 c 3
 197.6484375 408 151 355.286868325 151 249 c 3
 151 154 198 97 322 97 c 3
 372.423828125 97 439.903320312 114.354492188 484 140 c 1
 484 23 l 1
EndSplineSet
EndChar

StartChar: s
Encoding: 83 115 41
Width: 418
VWidth: 0
Flags: HMW
AnchorPoint: "Bottom" 225 -44 basechar 0
AnchorPoint: "Cedilla" 225 0 basechar 0
AnchorPoint: "Top" 224 574 basechar 0
LayerCount: 3
Fore
SplineSet
384 489 m 1
 355 378 l 1
 302.713867188 403.052734375 261.731445312 407 232 407 c 3
 181.61721254 407 155 393.666992188 155 368 c 3
 155 346.166992188 164.774913194 334.9921875 199 322 c 2
 292.708007812 287.217773438 l 2
 360.957387363 261.88519581 401 225.500976562 401 152 c 3
 401 43 324 -14 199 -14 c 3
 137.393554688 -14 75.03125 1.5791015625 38 23 c 1
 38 142 l 1
 91 108.311607697 147 95 206 95 c 3
 250.376811594 95 274 107.690229936 274 138 c 3
 274 157.353515625 263.337897745 170.330078125 225.041992188 184.536132812 c 2
 135.758789062 216.994140625 l 2
 71 240.536132812 28 276 28 359 c 3
 28 450 105.887695312 517 238 517 c 3
 296.153320312 517 350.856445312 505.592773438 384 489 c 1
EndSplineSet
EndChar

StartChar: c
Encoding: 67 99 42
Width: 456
VWidth: 0
Flags: HMW
AnchorPoint: "Top" 274 574 basechar 0
AnchorPoint: "Cedilla" 285 0 basechar 0
LayerCount: 3
Fore
SplineSet
410 376 m 1
 380.678710938 388.019628906 351.446289062 397 308 397 c 3
 241.518554688 397 153 363.248274294 153 252 c 3
 153 142.176757812 234.5859375 100 314 100 c 3
 356.240234375 100 405.103515625 111.277622768 434 127 c 1
 434 12 l 1
 410.916015625 0.5703125 364.749023438 -12 308 -12 c 3
 184.6640625 -12 22 48.142578125 22 248 c 3
 22 460.669418909 202 513 312 513 c 3
 376.611328125 513 420.49609375 499.25 440 491 c 1
 410 376 l 1
EndSplineSet
EndChar

StartChar: r
Encoding: 82 114 43
Width: 371
VWidth: 0
Flags: HMW
AnchorPoint: "Bottom" 123 -44 basechar 0
AnchorPoint: "Top" 210 574 basechar 0
LayerCount: 3
Fore
SplineSet
52 0 m 1
 52 503 l 1
 174 503 l 1
 175 360 l 1
 181 360 l 1
 181 0 l 1
 52 0 l 1
341 355 m 1
 317.324327257 367.500887784 296.410047743 375 273 375 c 3
 216.954101562 375 181 343.717773438 181 253 c 1
 161 354 l 1
 175.895104895 437.532051282 213.999808785 511 303 511 c 3
 332.76 511 358.774647887 498 375 483 c 1
 341 355 l 1
EndSplineSet
EndChar

StartChar: v
Encoding: 86 118 44
Width: 505
VWidth: 0
Flags: HMW
LayerCount: 3
Fore
SplineSet
334 0 m 1
 216 0 l 5
 365 503 l 1
 503 503 l 1
 334 0 l 1
169 0 m 1
 2 503 l 1
 145 503 l 1
 294 0 l 1
 169 0 l 1
EndSplineSet
EndChar

StartChar: m
Encoding: 77 109 45
Width: 813
VWidth: 0
Flags: HMW
LayerCount: 3
Fore
SplineSet
434 311 m 1
 434 431.755550987 505.024600343 511 609 511 c 3
 708.098632812 511 767 441.606291118 767 337 c 2
 767 0 l 1
 638 0 l 1
 638 305 l 2
 638 361.184334591 612.255859375 395 562 395 c 3
 505.326171875 395 474 360.297851562 474 287 c 5
 434 311 l 1
52 0 m 1
 52 503 l 1
 177 503 l 1
 178 360 l 1
 181 360 l 1
 181 0 l 1
 52 0 l 1
160 339 m 5
 160 445.869140625 224.479492188 511 316 511 c 3
 415.098632812 511 474 441.606291118 474 337 c 2
 474 0 l 1
 345 0 l 1
 345 305 l 2
 345 361.184334591 319.255859375 395 269 395 c 3
 212.326171875 395 181 360.297851562 181 287 c 5
 160 339 l 5
EndSplineSet
EndChar

StartChar: f
Encoding: 70 102 46
Width: 345
VWidth: 0
Flags: HMW
LayerCount: 3
Fore
SplineSet
22 503 m 1
 338 503 l 1
 338 396 l 1
 2 396 l 1
 22 503 l 1
81 541 m 2
 81 693 190 723 263 723 c 3
 291 723 314.419596355 718 329 712 c 1
 350 601 l 1
 333.43909842 606.5 311.356483477 612 286 612 c 3
 245.888888889 612 210 594.787878788 210 541 c 2
 210 0 l 1
 81 0 l 1
 81 541 l 2
EndSplineSet
EndChar

StartChar: g
Encoding: 71 103 47
Width: 595
VWidth: 0
Flags: HMW
AnchorPoint: "Top" 290 578 basechar 0
LayerCount: 3
Fore
SplineSet
414 359 m 1
 417 359 l 1
 418 503 l 1
 543 503 l 1
 543 65 l 2
 543 -80 452.442742047 -176 261 -176 c 3
 196 -176 120.605351154 -161.081321022 77 -133 c 1
 77 -15 l 1
 128.890052356 -48.8382102272 201.555255031 -66 259 -66 c 3
 356.987505174 -66 414 -22.3577235772 414 56 c 2
 414 214 l 1
 415 214 l 1
 415 316 l 1
 414 316 l 1
 414 359 l 1
254 17 m 3
 110.209837841 17 22 125.150390625 22 265 c 3
 22 405.8203125 110.209837841 514 254 514 c 3
 374.05522048 514 445 424.598486075 445 314 c 1
 445 217 l 1
 445 105.889451101 373.29108534 17 254 17 c 3
284 128 m 3
 369.652802438 128 415 189.194126157 415 265 c 3
 415 340.854219324 369.652802438 403 284 403 c 3
 197.039579933 403 151 340.854219324 151 265 c 3
 151 189.194126157 197.039579933 128 284 128 c 3
EndSplineSet
EndChar

StartChar: j
Encoding: 74 106 48
Width: 233
VWidth: 0
Flags: HMW
LayerCount: 3
Fore
SplineSet
50 574 m 5
 50 700 l 5
 183 700 l 5
 183 574 l 5
 50 574 l 5
52 16 m 6
 52 503 l 5
 181 503 l 5
 181 20 l 6
 181 -117 116.638554217 -170 15 -170 c 7
 -8.6 -170 -36.2 -163.333333333 -50 -154 c 5
 -50 -50 l 5
 -35.7 -54.6666666667 -21.4 -57 -6 -57 c 7
 31.4193548387 -57 52 -31.3513513514 52 16 c 6
EndSplineSet
EndChar

StartChar: k
Encoding: 75 107 49
Width: 515
VWidth: 0
Flags: HMW
AnchorPoint: "Bottom" 274 -44 basechar 0
LayerCount: 3
Fore
SplineSet
165 261 m 1
 289 304 l 1
 522 0 l 1
 361 0 l 1
 165 261 l 1
160 261 m 1
 365 503 l 5
 520 503 l 5
 288 231 l 1
 160 261 l 1
52 0 m 1
 52 718 l 1
 181 718 l 1
 181 0 l 1
 52 0 l 1
EndSplineSet
EndChar

StartChar: w
Encoding: 87 119 50
Width: 746
VWidth: 0
Flags: HMW
LayerCount: 3
Fore
SplineSet
611 0 m 1
 502 0 l 1
 608 503 l 1
 738 503 l 1
 611 0 l 1
472 0 m 1
 325 503 l 1
 437 503 l 1
 582 0 l 1
 472 0 l 1
272 0 m 1
 169 0 l 1
 314 503 l 5
 421 503 l 5
 272 0 l 1
133 0 m 1
 8 503 l 1
 141 503 l 1
 249 0 l 1
 133 0 l 1
EndSplineSet
EndChar

StartChar: x
Encoding: 88 120 51
Width: 502
VWidth: 0
Flags: HMW
LayerCount: 3
Back
SplineSet
136 0 m 5
 -7 0 l 1
 355 503 l 1
 498 503 l 1
 136 0 l 5
360 0 m 1
 8 503 l 1
 157 503 l 1
 509 0 l 1
 360 0 l 1
EndSplineSet
Fore
SplineSet
136 0 m 1
 -7 0 l 1
 167.318359375 261.1875 l 5
 8 503 l 1
 157 503 l 1
 256.659179688 345.084960938 l 5
 355 503 l 1
 498 503 l 1
 337.3515625 260.881835938 l 5
 509 0 l 1
 360 0 l 1
 247.224609375 176.979492188 l 5
 136 0 l 1
EndSplineSet
EndChar

StartChar: y
Encoding: 89 121 52
Width: 486
VWidth: 0
Flags: HMW
AnchorPoint: "Top" 246 574 basechar 0
LayerCount: 3
Fore
SplineSet
316 7 m 2
 277.251707709 -108.084748362 227 -168 123 -168 c 3
 81 -168 46 -158.5 28 -149 c 1
 28 -37 l 1
 51 -46.2 83 -53 107 -53 c 3
 156 -53 179.968270215 -19.9959058342 185 19 c 2
 189 50 l 1
 217 50 l 1
 351 503 l 1
 483 503 l 1
 316 7 l 2
3 503 m 1
 145 503 l 1
 286 50 l 1
 199 -49 l 1
 3 503 l 1
EndSplineSet
EndChar

StartChar: z
Encoding: 90 122 53
Width: 442
VWidth: 0
Flags: HMW
AnchorPoint: "Top" 236 574 basechar 0
LayerCount: 3
Fore
SplineSet
12 13 m 1
 92 110 l 1
 449 110 l 1
 415 0 l 1
 12 0 l 1
 12 13 l 1
432 490 m 1
 351 393 l 1
 12 393 l 1
 46 503 l 1
 432 503 l 1
 432 490 l 1
12 13 m 1
 283 480 l 1
 432 490 l 1
 161 25 l 1
 12 13 l 1
EndSplineSet
EndChar

StartChar: period
Encoding: 14 46 54
Width: 221
VWidth: 0
Flags: HMW
LayerCount: 3
Fore
SplineSet
38 0 m 1
 38 152 l 1
 183 152 l 5
 183 0 l 5
 38 0 l 1
EndSplineSet
Validated: 1
EndChar

StartChar: comma
Encoding: 12 44 55
Width: 231
VWidth: 0
Flags: HMW
LayerCount: 3
Fore
SplineSet
54 -72 m 3
 89.0907111568 -72 104 -55.0276358762 104 -16 c 2
 104 6 l 1
 43 30 l 5
 43 152 l 1
 193 152 l 1
 193 -14 l 2
 193 -99.638671875 146.052734375 -148 75 -148 c 3
 60.5070891204 -148 40.3727213542 -145.5 25 -138 c 1
 19 -66 l 1
 29.8621294071 -70 43.1378705929 -72 54 -72 c 3
EndSplineSet
EndChar

StartChar: two
Encoding: 18 50 56
Width: 546
VWidth: 0
Flags: HMW
LayerCount: 3
Fore
SplineSet
39 0 m 1
 139 120 l 1
 527 120 l 1
 496 0 l 1
 39 0 l 1
50 513 m 1
 84 644 l 1
 124.659860642 673.27868413 182.639695946 697 266 697 c 3
 395.477466248 697 493 635.98828125 493 511 c 3
 493 438.196289062 463.741130359 380.033203125 365.55078125 293.958007812 c 2
 266 206 l 2
 226.71484375 171.290039062 199 140 199 88 c 1
 39 0 l 1
 39 32 l 2
 39 117 82 198.201116928 194.064453125 301.57421875 c 2
 278 379 l 2
 345.946993671 440.893554688 358 460.608398438 358 500 c 3
 358 551.59765625 313.401785714 576 247 576 c 3
 167.830625 576 110.477460937 551.850486626 50 513 c 1
EndSplineSet
EndChar

StartChar: one
Encoding: 17 49 57
Width: 546
VWidth: 0
Flags: HMW
LayerCount: 3
Fore
SplineSet
391 693 m 5
 391 572 l 5
 72 508 l 5
 105 637 l 5
 391 693 l 5
257 0 m 5
 257 653 l 5
 391 693 l 5
 391 0 l 5
 257 0 l 5
EndSplineSet
Validated: 5
EndChar

StartChar: three
Encoding: 19 51 58
Width: 546
VWidth: 0
Flags: HMW
LayerCount: 3
Fore
SplineSet
508 199 m 3
 508 73.751953125 405.373046875 -8 255 -8 c 3
 166.299804688 -8 95.009765625 13.83984375 49 44 c 1
 49 173 l 1
 115 135 166.838867188 112 252 112 c 3
 314.544921875 112 369 139.845703125 369 203 c 3
 369 278.186523438 277.432617188 301.01953125 155 302 c 1
 183 408 l 1
 274 379 l 1
 377.208984375 379 508 327.219726562 508 199 c 3
352 498 m 3
 352 553.375 298.434570312 579 236 579 c 3
 167.359375 579 102.485351562 556.766601562 45 521 c 1
 79 650 l 1
 121.447265625 675.96484375 180.236328125 697 269 697 c 3
 392.826171875 697 490 635.98828125 490 524 c 3
 490 405.333007812 382.745117188 346 326 346 c 1
 183 408 l 1
 277.212890625 410.022460938 352 427 352 498 c 3
EndSplineSet
EndChar

StartChar: zero
Encoding: 16 48 59
Width: 546
VWidth: 0
Flags: HMW
LayerCount: 3
Fore
SplineSet
272 700 m 3
 436.872070312 700 524 580.854492188 524 346 c 3
 524 108.91796875 436.872070312 -12 272 -12 c 3
 108.436523438 -12 22 108.91796875 22 346 c 3
 22 580.854492188 108.436523438 700 272 700 c 3
272 579 m 3
 195.930664062 579 156 510.575195312 156 346 c 3
 156 179.342773438 195.930664062 109 272 109 c 3
 349.380859375 109 390 179.342773438 390 346 c 3
 390 510.575195312 349.380859375 579 272 579 c 3
EndSplineSet
Validated: 1
EndChar

StartChar: four
Encoding: 20 52 60
Width: 546
VWidth: 0
Flags: HMW
LayerCount: 3
Fore
SplineSet
8 260 m 1
 75 262 l 1
 553 262 l 1
 531 154 l 1
 8 154 l 1
 8 260 l 1
325 0 m 1
 325 425 l 1
 459 462 l 1
 459 0 l 1
 325 0 l 1
8 260 m 1
 269 688 l 1
 417 688 l 1
 155 260 l 1
 8 260 l 1
EndSplineSet
EndChar

StartChar: five
Encoding: 21 53 61
Width: 546
VWidth: 0
Flags: HMW
LayerCount: 3
Fore
SplineSet
63 371 m 1
 104 688 l 1
 223 688 l 1
 181 371 l 1
 63 371 l 1
103 565 m 1
 104 688 l 1
 486 688 l 1
 453 565 l 1
 103 565 l 1
509 227 m 3
 509 82.8408203125 401.916015625 -8 240 -8 c 3
 157.041992188 -8 85.4462890625 13.419921875 41 43 c 1
 41 172 l 1
 101.795898438 135 161.073242188 112 243 112 c 3
 313.461914062 112 374 143.82421875 374 218 c 3
 374 300.291015625 303 327 219 327 c 3
 165.697265625 327 98.6474609375 316 54 301 c 1
 67 399 l 1
 110.477539062 415.91796875 190.802734375 440 273 440 c 3
 403.481445312 440 509 364.942382812 509 227 c 3
EndSplineSet
Validated: 5
EndChar

StartChar: six
Encoding: 22 54 62
Width: 546
VWidth: 0
Flags: HMW
LayerCount: 3
Fore
SplineSet
26 330 m 1
 26 96 135.783203125 -12 299 -12 c 3
 439.221679688 -12 537 84 537 226 c 3
 537 354.012695312 435.150390625 444 319 444 c 3
 216.059570312 444 146 388.811523438 146 309 c 1
 175 216 l 1
 175 277.142578125 223.849609375 323 290 323 c 3
 356.150390625 323 405 277.142578125 405 216 c 3
 405 153.859375 356.150390625 107 290 107 c 3
 223.849609375 107 175 153.859375 175 216 c 1
 153 339 l 1
 153 464.713867188 198.024414062 579 334 579 c 3
 390 579 438.776367188 558.090820312 469 533 c 1
 500 653 l 1
 462.4140625 679.211914062 408 700 340 700 c 3
 111.487304688 700 26 528 26 330 c 1
EndSplineSet
Validated: 5
EndChar

StartChar: seven
Encoding: 23 55 63
Width: 546
VWidth: 0
Flags: HMW
LayerCount: 3
Fore
SplineSet
536 688 m 1
 536 664 l 1
 456 565 l 1
 11 565 l 1
 44 688 l 1
 536 688 l 1
86 0 m 1
 113 155 308 512 413 664 c 1
 536 664 l 1
 443.609375 508 262.298828125 155 233 0 c 1
 86 0 l 1
EndSplineSet
Validated: 5
EndChar

StartChar: eight
Encoding: 24 56 64
Width: 546
VWidth: 0
Flags: HMW
LayerCount: 3
Fore
SplineSet
273 371 m 3
 439.7890625 371 526 303.491210938 526 186 c 3
 526 76.8623046875 433.764648438 -12 273 -12 c 3
 112.235351562 -12 20 76.8623046875 20 186 c 3
 20 303.491210938 106.2109375 371 273 371 c 3
273 299 m 3
 195.822737631 299 155 253.927774645 155 201 c 3
 155 147.88536352 195.822737631 102 273 102 c 3
 350.831306966 102 391 148.348632812 391 202 c 3
 391 254.387695312 350.831306966 299 273 299 c 3
273 699 m 3
 421.056640625 699 506 611.849609375 506 509 c 3
 506 408.201171875 431.142578125 336 273 336 c 3
 114.857421875 336 40 408.201171875 40 509 c 3
 40 611.849609375 124.943359375 699 273 699 c 3
273 587 m 3
 210.229994972 587 174 545.607465765 174 497 c 3
 174 448.177354601 210.229994972 406 273 406 c 3
 335.770005028 406 372 448.177354601 372 497 c 3
 372 545.607465765 335.770005028 587 273 587 c 3
EndSplineSet
EndChar

StartChar: nine
Encoding: 25 57 65
Width: 546
VWidth: 0
Flags: HMW
LayerCount: 3
Fore
SplineSet
520 353 m 1
 520 592 410.216796875 700 249 700 c 3
 106.778320312 700 9 601.209960938 9 460 c 3
 9 330.225585938 110.849609375 239 230 239 c 3
 329.940429688 239 400 295.82421875 400 378 c 1
 371 470 l 1
 371 407.713867188 322.150390625 361 256 361 c 3
 189.849609375 361 141 407.713867188 141 470 c 3
 141 533.280273438 189.849609375 581 256 581 c 3
 322.150390625 581 371 533.280273438 371 470 c 1
 394 350 l 1
 394 228.23828125 360.024414062 108 217 108 c 3
 151.419921875 108 98.0361328125 130.234409877 51 163 c 5
 51 34 l 1
 83.25390625 10.41015625 148.26171875 -12 223 -12 c 3
 449.043945312 -12 520 165 520 353 c 1
EndSplineSet
EndChar

StartChar: quotesingle
Encoding: 7 39 67
Width: 210
VWidth: 0
Flags: HMW
LayerCount: 3
Fore
SplineSet
67 389 m 5
 41 595 l 1
 41 688 l 1
 169 688 l 1
 169 595 l 1
 143 389 l 1
 67 389 l 5
EndSplineSet
Validated: 1
EndChar

StartChar: f_f
Encoding: 332 64256 70
Width: 660
VWidth: 0
Flags: HMW
LayerCount: 3
Fore
SplineSet
246 503 m 1
 378 503 l 1
 378 396 l 1
 246 396 l 1
 246 503 l 1
EndSplineSet
Refer: 46 102 N 1 0 0 1 321 0 2
Refer: 46 102 N 1 0 0 1 -2 0 2
LCarets2: 1 0
Ligature2: "'liga' Standard Ligatures in Latin lookup 0-1" f f
EndChar

StartChar: parenleft
Encoding: 8 40 71
Width: 335
VWidth: 0
Flags: HMW
LayerCount: 3
Fore
SplineSet
140 300 m 3
 140 149.645665519 187 7.5314685315 333 -38 c 1
 306 -132 l 1
 115.141952135 -92.337369055 23 95 23 302 c 3
 23 505.741100865 113.223308067 686.253158143 306 725 c 1
 333 634 l 1
 179.176632332 584.924713787 140 451.394177668 140 300 c 3
EndSplineSet
EndChar

StartChar: dollar
Encoding: 4 36 73
Width: 501
VWidth: 0
Flags: HMW
LayerCount: 3
Fore
SplineSet
199 -113 m 5
 199 58 l 1
 321 58 l 1
 321 -113 l 5
 199 -113 l 5
199 630 m 1
 199 791 l 1
 321 791 l 1
 321 630 l 1
 199 630 l 1
EndSplineSet
Refer: 24 83 N 1 0 0 1 -2 0 2
EndChar

StartChar: bracketleft
Encoding: 59 91 76
Width: 338
VWidth: 0
Flags: HMW
LayerCount: 3
Fore
SplineSet
130 718 m 1
 333 718 l 1
 307 619 l 1
 130 619 l 1
 130 718 l 1
130 -26 m 1
 307 -26 l 1
 333 -125 l 1
 130 -125 l 1
 130 -26 l 1
174 -125 m 1
 58 -125 l 1
 58 718 l 1
 174 718 l 1
 174 -125 l 1
EndSplineSet
Validated: 5
EndChar

StartChar: exclam
Encoding: 1 33 78
Width: 251
VWidth: 0
Flags: HMW
LayerCount: 3
Fore
SplineSet
80 226 m 1
 58 511 l 1
 58 688 l 1
 194 688 l 1
 194 511 l 1
 172 226 l 1
 80 226 l 1
EndSplineSet
Refer: 54 46 S 1 0 0 1 15 0 2
Validated: 1
EndChar

StartChar: question
Encoding: 31 63 79
Width: 463
VWidth: 0
Flags: HMW
LayerCount: 3
Fore
SplineSet
157 235 m 1
 157 314.435546875 192.864257812 349.677734375 248 401 c 0
 275.482421875 426.58203125 305 455 305 501 c 3
 305 555 261 576 200 576 c 3
 123.111328125 576 70.166015625 554 13 518 c 1
 47 649 l 1
 91 677 138.756835938 697 222 697 c 3
 343 697 440 636 440 522 c 3
 440 447.801757812 406.053639864 405.234452356 350.21875 353.93359375 c 0
 298 305.955229024 268.907407407 279 264 226 c 1
 157 226 l 1
 157 226 157 230.5 157 235 c 1
EndSplineSet
Refer: 54 46 N 1 0 0 1 104 0 2
EndChar

StartChar: ampersand
Encoding: 6 38 80
Width: 589
VWidth: 0
Flags: HMW
LayerCount: 3
Fore
SplineSet
213 406 m 5
 241 320 l 5
 179.181818182 309.336958052 156 267.818799268 156 214 c 7
 156 149 205.939453125 97 278 97 c 7
 379.458984375 97 433 205 445 382 c 5
 555 347 l 5
 541.827148438 153 426.9765625 -10 246 -10 c 7
 133 -10 29 68 29 193 c 7
 29 314 112 382 213 406 c 5
440 0 m 5
 155 367 l 6
 116.807813058 416.180816168 93 459.4765625 93 518 c 7
 93 642.33984375 206.466796875 698 313 698 c 7
 373.561523438 698 426.129882812 683.447265625 462 660 c 5
 432 541 l 5
 398.192382812 562.24609375 357.633789062 581.891601562 305 581.891601562 c 7
 273 581.891601562 223 572.041992188 223 518 c 7
 223 495.797851562 230.698310287 474.000051046 258.877929688 436.40625 c 6
 586 0 l 5
 440 0 l 5
EndSplineSet
EndChar

StartChar: asterisk
Encoding: 10 42 81
Width: 473
VWidth: 0
Flags: HMW
LayerCount: 3
Fore
SplineSet
185 688 m 1
 288 688 l 1
 274 461 l 1
 199 461 l 5
 185 688 l 1
146.703125 260.443359375 m 1
 65.6103515625 318.633789062 l 1
 209.409179688 493.037109375 l 1
 269.231445312 452.48046875 l 1
 146.703125 260.443359375 l 1
407.389648438 318.633789062 m 1
 326.296875 260.443359375 l 1
 203.768554688 452.48046875 l 1
 263.590820312 493.037109375 l 1
 407.389648438 318.633789062 l 1
428.05859375 581.788085938 m 1
 458.651367188 487.633789062 l 1
 240.979492188 433.6796875 l 1
 219.657226562 497.302734375 l 1
 428.05859375 581.788085938 l 1
14.3486328125 487.633789062 m 1
 44.94140625 581.788085938 l 1
 253.342773438 497.302734375 l 1
 232.020507812 433.6796875 l 1
 14.3486328125 487.633789062 l 1
EndSplineSet
EndChar

StartChar: slash
Encoding: 15 47 82
Width: 465
VWidth: 0
Flags: HMW
LayerCount: 3
Fore
SplineSet
3 -125 m 1
 342 718 l 1
 462 718 l 1
 123 -125 l 1
 3 -125 l 1
EndSplineSet
Validated: 1
EndChar

StartChar: backslash
Encoding: 60 92 83
Width: 465
VWidth: 0
Flags: HMW
LayerCount: 3
Fore
SplineSet
462 -125 m 1
 342 -125 l 1
 3 718 l 1
 123 718 l 5
 462 -125 l 1
EndSplineSet
Validated: 1
EndChar

StartChar: underscore
Encoding: 63 95 84
Width: 516
VWidth: 0
Flags: HMW
LayerCount: 3
Fore
SplineSet
514 0 m 5
 514 -112 l 5
 -6 -112 l 1
 23 0 l 1
 514 0 l 5
EndSplineSet
Validated: 1
EndChar

StartChar: plus
Encoding: 11 43 85
Width: 491
VWidth: 0
Flags: HMW
LayerCount: 3
Fore
SplineSet
194 81 m 1
 194 534 l 1
 301 534 l 1
 301 81 l 1
 194 81 l 1
41 362 m 1
 467 362 l 1
 467 265 l 1
 16 265 l 1
 41 362 l 1
EndSplineSet
Validated: 5
EndChar

StartChar: braceleft
Encoding: 91 123 86
Width: 313
VWidth: 0
Flags: HMW
LayerCount: 3
Fore
SplineSet
149 297 m 5
 18 297 l 1
 18 339 l 1
 75.78125 341.505859375 126 361.701171875 126 415 c 3
 126 432 119.9375 450.421875 103.80859375 469.642578125 c 0
 85.046875 492 66 518.506835938 66 567 c 3
 66 673.869140625 196.459960938 724 280 724 c 1
 295 631 l 1
 228.426757812 623.8671875 184 608.751953125 184 573 c 3
 184 550.893554688 192.569335938 539.305664062 209.889648438 518 c 0
 228.022460938 495.694335938 250 464 250 425 c 3
 250 357 203.540039062 316.248046875 149 297 c 5
149 297 m 5
 203.540039062 277.751953125 250 237 250 169 c 3
 250 129 228.064453125 99.1083984375 209.889648438 76 c 0
 192.911132812 54.4140625 184 42.1064453125 184 21 c 3
 184 -14.751953125 228.426757812 -29.8671875 295 -37 c 1
 280 -130 l 1
 196.459960938 -130 66 -79.869140625 66 27 c 3
 66 75.4931640625 85.361328125 101.739257812 103.80859375 124.357421875 c 0
 119.829101562 144 126 162 126 179 c 3
 126 232.298828125 75.78125 252.494140625 18 255 c 1
 18 297 l 1
 149 297 l 5
EndSplineSet
Validated: 5
EndChar

StartChar: bar
Encoding: 92 124 87
Width: 231
VWidth: 0
Flags: HMW
LayerCount: 3
Fore
SplineSet
58 -125 m 1
 58 718 l 1
 173 718 l 1
 173 -125 l 1
 58 -125 l 1
EndSplineSet
Validated: 1
EndChar

StartChar: numbersign
Encoding: 3 35 89
Width: 689
VWidth: 0
Flags: HMW
LayerCount: 3
Fore
SplineSet
611 288 m 5
 611 187 l 5
 13 187 l 1
 40 288 l 1
 611 288 l 5
671 516 m 5
 671 415 l 5
 73 415 l 1
 100 516 l 1
 671 516 l 5
320 0 m 5
 500 688 l 5
 617 688 l 5
 437 0 l 5
 320 0 l 5
81 0 m 1
 261 688 l 1
 378 688 l 1
 198 0 l 1
 81 0 l 1
EndSplineSet
EndChar

StartChar: percent
Encoding: 5 37 90
Width: 786
VWidth: 0
Flags: HMW
LayerCount: 3
Fore
SplineSet
604 369 m 3
 707 369 763 295 763 183 c 3
 763 70 707 -5 604 -5 c 3
 501 -5 446 70 446 183 c 3
 446 295 501 369 604 369 c 3
604 284 m 3
 567 284 547 252 547 183 c 3
 547 113 567 80 604 80 c 3
 642 80 662 113 662 183 c 3
 662 252 642 284 604 284 c 3
181 693 m 3
 285 693 340 619 340 507 c 3
 340 394 285 319 181 319 c 3
 78 319 23 394 23 507 c 3
 23 619 78 693 181 693 c 3
181 608 m 3
 144 608 124 576 124 507 c 3
 124 437 144 404 181 404 c 3
 219 404 239 437 239 507 c 3
 239 576 219 608 181 608 c 3
EndSplineSet
Refer: 293 8260 N 1 0 0 1 101 0 2
Validated: 1
EndChar

StartChar: equal
Encoding: 29 61 91
Width: 504
VWidth: 0
Flags: HMW
LayerCount: 3
Fore
SplineSet
57 259 m 5
 465 259 l 5
 465 157 l 1
 31 157 l 1
 57 259 l 5
57 455 m 1
 465 455 l 1
 465 353 l 1
 31 353 l 1
 57 455 l 1
EndSplineSet
Validated: 1
EndChar

StartChar: at
Encoding: 32 64 92
Width: 973
VWidth: 0
Flags: HMW
LayerCount: 3
Fore
SplineSet
472 148 m 3
 544 148 582 204.551181102 582 274 c 3
 582 343.453125 544 401 472 401 c 3
 400 401 362 343.453125 362 274 c 3
 362 204.551181102 400 148 472 148 c 3
447 37 m 3
 315 37 232 140.6875 232 274 c 3
 232 407.742327009 315 511 447 511 c 3
 542.5546875 511 601 439.705078125 601 351 c 1
 616 219 l 1
 616 118.098632812 550.84375 37 447 37 c 3
746 38 m 3
 633.354492188 38 591 118.942382812 591 191 c 1
 581 191 l 1
 581 248 l 1
 582 248 l 1
 582 302 l 1
 581 302 l 1
 581 358 l 1
 584 358 l 1
 585 501 l 1
 709 501 l 1
 709 197 l 2
 709 157 719.208333333 133 758 133 c 3
 815.59765625 133 837 227.410551265 837 309 c 3
 837 478.08203125 706.197780954 637 492 637 c 3
 260.474292061 637 137 457.32117513 137 279 c 7
 137 85.4952493741 264.378027549 -84 525 -84 c 3
 593.460848568 -84 680.502304148 -63.4764530302 747 -29 c 1
 747 -131 l 1
 692.462558179 -160 600.78792387 -181 513 -181 c 3
 195.817342291 -181 28 30.2436146178 28 273 c 3
 28 516.94785493 190.523697507 735 503 735 c 3
 775.782159978 735 945 532.947265625 945 309 c 0
 945 144.560257126 867.327148438 38 746 38 c 3
EndSplineSet
EndChar

StartChar: AE
Encoding: 133 198 99
Width: 904
VWidth: 0
Flags: HMW
LayerCount: 3
Fore
SplineSet
490 412.916992188 m 1
 810 412.916992188 l 1
 778 293 l 1
 488 292.916992188 l 1
 490 412.916992188 l 1
490 122 m 1
 868 122 l 1
 901 0 l 1
 490 0 l 1
 490 122 l 1
490 688 m 1
 880 688 l 1
 848 566 l 1
 490 566 l 1
 490 688 l 1
425 0 m 1
 425 688 l 1
 559 688 l 1
 559 0 l 1
 425 0 l 1
-7 0 m 1
 339 688 l 1
 474 688 l 1
 134 0 l 1
 -7 0 l 1
160 268 m 5
 462 268 l 5
 462 154 l 5
 160 154 l 5
 160 268 l 5
EndSplineSet
EndChar

StartChar: Oslash
Encoding: 151 216 115
Width: 784
VWidth: 0
Flags: HMW
LayerCount: 3
Back
Refer: 13 79 N 1 0 0 1 -2 0 2
Fore
SplineSet
37 18 m 1
 181.409179688 182 l 1
 173.409179688 181 l 1
 520.225585938 576 l 1
 528.225585938 577 l 1
 667 734 l 1
 744 670 l 5
 611.37109375 520 l 5
 619.37109375 521 l 1
 257.62890625 107 l 1
 249.62890625 106 l 1
 114 -46 l 1
 37 18 l 1
EndSplineSet
Refer: 13 79 N 1 0 0 1 -2 0 2
EndChar

StartChar: OE
Encoding: 243 338 116
Width: 1116
VWidth: 0
Flags: HMW
LayerCount: 3
Fore
SplineSet
386 705 m 3
 610.834960938 705 727 538.086914062 727 346 c 3
 727 151.690429688 610.834960938 -17 386 -17 c 3
 151.944335938 -17 18 151.690429688 18 346 c 3
 18 538.086914062 151.944335938 705 386 705 c 3
392 584 m 3
 235.845703125 584 154 468.033203125 154 344 c 3
 154 219.966796875 235.926757812 104 392 104 c 3
 546.073242188 104 630 219.966796875 630 344 c 3
 630 468.033203125 545.985351562 584 392 584 c 3
691 412.916992188 m 1
 1022 412.916992188 l 1
 990 293 l 1
 689 292.916992188 l 1
 691 412.916992188 l 1
691 122 m 1
 1080 122 l 1
 1113 0 l 1
 691 0 l 1
 691 122 l 1
691 688 m 1
 1092 688 l 1
 1060 566 l 1
 691 566 l 1
 691 688 l 1
630 0 m 1
 630 688 l 1
 761 688 l 1
 761 0 l 1
 630 0 l 1
EndSplineSet
Validated: 5
EndChar

StartChar: ae
Encoding: 165 230 129
Width: 812
VWidth: 0
Flags: HMW
LayerCount: 3
Fore
SplineSet
383 297 m 1
 722 297 l 1
 722 204 l 1
 383 204 l 1
 383 297 l 1
762 24 m 1
 725.333007812 2 659.584960938 -13 597 -13 c 3
 411.602539062 -13 315 92 315 252 c 3
 315 384 406.107421875 517 567 517 c 3
 708.012695312 517 789 404.454101562 789 269 c 3
 789 247.333007812 788 224.634765625 785 204 c 1
 657 204 l 1
 660 224.645507812 662 247.354492188 662 268 c 3
 662 352 629.559570312 407 556 407 c 3
 481.484375 407 440 350.643554688 440 249 c 3
 440 154.625 490.249023438 98 601 98 c 3
 659.252929688 98 720.451171875 115.354492188 762 141 c 1
 762 24 l 1
315 319 m 1
 315 373.65060241 276.688073394 403 199 403 c 3
 136.215189873 403 84.2215189873 386.756097562 44 366 c 1
 73 485 l 5
 114.273333333 502.41935484 163.6 512 224 512 c 3
 364.958234597 512 440 437 440 327 c 1
 315 319 l 1
440 327 m 1
 440 143 l 1
 315 143 l 1
 315 319 l 1
 440 327 l 1
151 157 m 3
 151 121.271186441 172 95 222 95 c 3
 277 95 315 130 315 195 c 1
 405 171 l 1
 405 63.1405975685 316.711914062 -8 194 -8 c 3
 81 -8 22 57.4391891892 22 141 c 3
 22 280.842424242 146.9765625 298.216619318 248 307 c 2
 329 314 l 1
 329 227 l 1
 234 218 l 2
 182.994277909 213.16787896 151 196.65 151 157 c 3
EndSplineSet
EndChar

StartChar: dotlessi
Encoding: 222 305 135
Width: 233
VWidth: 0
Flags: HMW
AnchorPoint: "Top" 117 574 basechar 0
LayerCount: 3
Fore
SplineSet
52 0 m 1
 52 503 l 1
 181 503 l 1
 181 0 l 1
 52 0 l 1
EndSplineSet
Validated: 1
EndChar

StartChar: oslash
Encoding: 183 248 146
Width: 584
VWidth: 0
Flags: HMW
LayerCount: 3
Fore
SplineSet
22 14 m 1
 146.455078125 155 l 1
 143.455078125 155 l 1
 365.305664062 407 l 1
 368.305664062 407 l 1
 491 546 l 1
 562 489 l 1
 449.870117188 362 l 1
 452.870117188 362 l 1
 209.010742188 85 l 1
 206.010742188 85 l 1
 93 -43 l 1
 22 14 l 1
EndSplineSet
Refer: 27 111 N 1 0 0 1 -2 0 2
EndChar

StartChar: dieresis
Encoding: 103 168 154
Width: 430
VWidth: 0
Flags: HMW
AnchorPoint: "Top" 215 562 mark 0
LayerCount: 3
Fore
SplineSet
250 562 m 5
 250 688 l 5
 382 688 l 5
 382 562 l 5
 250 562 l 5
48 562 m 1
 48 688 l 1
 180 688 l 1
 180 562 l 1
 48 562 l 1
EndSplineSet
Validated: 1
EndChar

StartChar: germandbls
Encoding: 158 223 155
Width: 566
VWidth: 0
Flags: HMW
LayerCount: 3
Fore
SplineSet
52 514 m 2
 52 687 178.309570312 725 269 725 c 3
 360.369140625 725 462 678.791946309 462 572 c 3
 462 509.701171875 438.542973668 487.034312703 403.181640625 456 c 0
 376.429089303 432.521047939 366 421.967357197 366 399 c 3
 366 379 377.970703125 362.938476562 401 352 c 2
 441 333 l 2
 531.525390625 290.000976562 560 243.170898438 560 167 c 3
 560 66.2255859375 490.201171875 -8 358 -8 c 3
 320 -8 270 2 237 20 c 1
 237 134 l 1
 273.840820312 110.666992188 326.043945312 99 361 99 c 3
 408 99 434 124.89453125 434 157 c 3
 434 184.458007812 421.852539062 205.689453125 375 228 c 2
 333 248 l 2
 270.778320312 277.629882812 240 312.45703125 240 375 c 3
 240 429 263.752929688 457.778320312 293 483.958984375 c 0
 321.040039062 509.05859375 336 523.336914062 336 552 c 3
 336 595 301.546875 612 263 612 c 3
 224 612 181 592 181 519 c 2
 181 0 l 1
 52 0 l 1
 52 514 l 2
EndSplineSet
Validated: 1
EndChar

StartChar: grave
Encoding: 64 96 156
Width: 236
VWidth: 0
Flags: HMW
AnchorPoint: "Top" 159 522 mark 0
LayerCount: 3
Fore
SplineSet
131 522 m 5
 8 688 l 5
 145 688 l 5
 233 522 l 29
 131 522 l 5
EndSplineSet
Validated: 1
EndChar

StartChar: acute
Encoding: 115 180 157
Width: 236
VWidth: 0
Flags: HMW
AnchorPoint: "Top" 77 522 mark 0
LayerCount: 3
Fore
SplineSet
103 522 m 1
 0 522 l 25
 87 688 l 5
 225 688 l 1
 103 522 l 1
EndSplineSet
EndChar

StartChar: ring
Encoding: 286 730 158
Width: 252
VWidth: 0
Flags: HMW
AnchorPoint: "Top" 126 519 mark 0
LayerCount: 3
Fore
SplineSet
80.5 602 m 3
 80.5 578.624799981 95.45703125 559.5 126 559.5 c 3
 156.54296875 559.5 171.5 578.624799981 171.5 602 c 3
 171.5 625.375200019 156.54296875 644.5 126 644.5 c 3
 95.45703125 644.5 80.5 625.375200019 80.5 602 c 3
17 602 m 3
 17 655.35 54.4480523003 699 126 699 c 3
 197.551947699 699 235 655.35 235 602 c 3
 235 548.65 197.551947699 505 126 505 c 3
 54.4480523003 505 17 548.65 17 602 c 3
EndSplineSet
EndChar

StartChar: cedilla
Encoding: 119 184 159
Width: 236
VWidth: 0
Flags: HMW
AnchorPoint: "Cedilla" 136 0 mark 0
LayerCount: 3
Fore
SplineSet
139 22 m 1
 181 -5 211 -39 211 -84 c 3
 211 -134 174 -175 97 -175 c 3
 63 -175 28 -166 10 -153 c 1
 10 -67 l 1
 27 -77 56 -85 76 -85 c 3
 100 -85 111 -74 111 -54 c 3
 111 -36 104 -9 85 22 c 1
 139 22 l 1
EndSplineSet
EndChar

StartChar: circumflex
Encoding: 281 710 160
Width: 346
VWidth: 0
Flags: HMW
AnchorPoint: "Top" 173 522 mark 0
LayerCount: 3
Fore
SplineSet
241 522 m 1
 118 688 l 1
 245 688 l 1
 343 522 l 1
 241 522 l 1
105 522 m 1
 3 522 l 1
 101 688 l 1
 228 688 l 1
 105 522 l 1
EndSplineSet
Validated: 5
EndChar

StartChar: tilde
Encoding: 288 732 162
Width: 385
VWidth: 0
Flags: HMW
AnchorPoint: "Top" 192 545 mark 0
LayerCount: 3
Fore
SplineSet
12 560 m 1
 12 642.282226562 56 693 129 693 c 3
 166.589266314 693 190.351334849 675.370628286 214.26953125 657.21875 c 0
 234.555664062 641.204101562 246 634 265 634 c 3
 285.111713611 634 299.779733758 651.19059806 302 691 c 1
 373 678 l 1
 373 595.717773438 326.4453125 545 257 545 c 3
 221.238146552 545 195.171426006 562.624254729 169 582 c 0
 149.073242188 597.325195312 139 605 120 605 c 3
 100.40846706 605 85.7587626689 593.400192002 84 547 c 1
 12 560 l 1
EndSplineSet
EndChar

StartChar: oe
Encoding: 244 339 163
Width: 919
VWidth: 0
Flags: HMW
AnchorPoint: "Top" 292 578 basechar 0
LayerCount: 3
Fore
SplineSet
488 297 m 1
 829 297 l 1
 829 204 l 1
 488 204 l 1
 488 297 l 1
869 24 m 1
 832 2 765 -13 702 -13 c 3
 517.633789062 -13 422 92 422 252 c 3
 422 394 513.546875 517 674 517 c 3
 815 517 896 404 896 269 c 3
 896 247 895 225 892 204 c 1
 764 204 l 1
 767 225 769 247 769 268 c 3
 769 352 737 407 663 407 c 3
 589 407 547 351 547 249 c 3
 547 155 595 98 708 98 c 3
 766 98 827 115 869 141 c 1
 869 24 l 1
287 518 m 3
 452.212890625 518 547 402 547 252 c 3
 547 101 452.212890625 -15 287 -15 c 3
 118.610351562 -15 22 101 22 252 c 3
 22 402 118.610351562 518 287 518 c 3
287 404 m 3
 198.731445312 404 152 334.092773438 152 252 c 3
 152 169.913085938 198.731445312 99 287 99 c 3
 375.268554688 99 422 169.913085938 422 252 c 3
 422 334.092773438 375.268554688 404 287 404 c 3
EndSplineSet
Validated: 5
EndChar

StartChar: questiondown
Encoding: 126 191 165
Width: 436
VWidth: 0
Flags: HMW
LayerCount: 3
Fore
SplineSet
306 288 m 1
 306 208.564453125 270.135742188 173.322265625 215 122 c 0
 187.517578125 96.41796875 158 68 158 22 c 3
 158 -32 202 -53 263 -53 c 3
 334.131835938 -53 383.114257812 -33.275390625 436 -1 c 1
 436 -116 l 1
 398 -143.473632812 333.756835938 -174 241 -174 c 3
 120 -174 23 -113 23 1 c 3
 23 75.1982421875 56.9462890625 117.765625 112.78125 169.06640625 c 0
 165 217.044921875 194.092773438 244 199 297 c 1
 306 297 l 1
 306 297 306 292.5 306 288 c 1
EndSplineSet
Refer: 54 46 N 1 0 0 1 138 371 2
EndChar

StartChar: cent
Encoding: 97 162 166
Width: 456
VWidth: 0
Flags: HMW
LayerCount: 3
Fore
SplineSet
222 -112 m 5
 222 58 l 1
 342 58 l 1
 342 -112 l 5
 222 -112 l 5
222 445 m 1
 222 607 l 1
 342 607 l 1
 342 445 l 1
 222 445 l 1
EndSplineSet
Refer: 42 99 N 1 0 0 1 -2 0 2
EndChar

StartChar: yen
Encoding: 100 165 167
Width: 561
VWidth: 0
Flags: HMW
LayerCount: 3
Fore
SplineSet
69 186 m 5
 501 186 l 5
 501 101 l 5
 53 101 l 5
 69 186 l 5
69 334 m 5
 501 334 l 5
 501 249 l 5
 53 249 l 5
 69 334 l 5
EndSplineSet
Refer: 22 89 N 1 0 0 1 -2 0 2
EndChar

StartChar: Euro
Encoding: 307 8364 168
Width: 617
VWidth: 0
Flags: HMW
LayerCount: 3
Fore
SplineSet
567 551 m 1
 541.270507812 560.239257812 501.872070312 572 448 572 c 3
 345.080078125 572 210 521.241210938 210 347 c 3
 210 176.276367188 332.958984375 111 455 111 c 3
 507.190429688 111 557.75 122.87890625 592 139 c 1
 592 15 l 1
 565.440429688 2.4814453125 512.767578125 -11 447 -11 c 3
 280.361328125 -11 74 72.3076171875 74 343 c 3
 74 629.174804688 306.061523438 697 466 697 c 3
 527.614257812 697 577.084960938 683.737304688 599 676 c 1
 567 551 l 1
22 312 m 5
 505 312 l 5
 483 227 l 5
 6 227 l 5
 22 312 l 5
22 460 m 5
 543 460 l 5
 521 375 l 5
 6 375 l 5
 22 460 l 5
EndSplineSet
Validated: 5
EndChar

StartChar: sterling
Encoding: 98 163 169
Width: 530
VWidth: 0
Flags: HMW
LayerCount: 3
Fore
SplineSet
106 122 m 1
 497 122 l 1
 530 0 l 1
 106 0 l 1
 106 122 l 1
28 394 m 1
 429 395 l 1
 401 286 l 1
 8 285 l 1
 28 394 l 1
41 0 m 1
 41 112 l 1
 85.3330078125 143 111 188 111 244 c 3
 111 290.330078125 101.669921875 319.533203125 92.0224609375 349 c 1
 81.693359375 380.545898438 71 414.540039062 71 473 c 3
 71 615 177.299220176 698 341 698 c 3
 403.554758955 698 458 684 497 665 c 1
 467 543 l 1
 417.03493089 567.177734375 379.818181818 577 334 577 c 3
 246.666666667 577 205 535 205 473 c 3
 205 433 215 398.292792793 225 366 c 1
 235 332.5 245 299 245 255 c 3
 245 193.713867188 224.791992188 143.180664062 182 112 c 1
 182 0 l 1
 41 0 l 1
EndSplineSet
EndChar

StartChar: copyright
Encoding: 104 169 180
Width: 774
VWidth: 0
Flags: HMW
LayerCount: 3
Fore
SplineSet
494.16015625 432.48046875 m 5
 476.880173142 438.42046875 450.420199008 445.98046875 414.240234375 445.98046875 c 7
 364.66572094 445.98046875 299.599609375 423.686697648 299.599609375 347.16015625 c 7
 299.599609375 271.376161135 359.302252531 242.400390625 418.559570312 242.400390625 c 7
 453.11983817 242.400390625 486.600097656 249.960108902 509.280273438 260.219726562 c 5
 509.280273438 169.5 l 5
 491.871594407 161.959963831 457.347439593 153.83984375 414.240234375 153.83984375 c 7
 319.429842126 153.83984375 202.01953125 198.826521146 202.01953125 345 c 7
 202.01953125 499.535048188 333.727074373 536.16015625 424.5 536.16015625 c 7
 465.026584343 536.16015625 497.56597745 527.975805918 511.98046875 523.200195312 c 5
 494.16015625 432.48046875 l 5
387 705 m 3
 620.419921875 705 756 538.086914062 756 346 c 3
 756 151.690429688 620.419921875 -17 387 -17 c 3
 153.580078125 -17 18 151.690429688 18 346 c 3
 18 538.086914062 153.580078125 705 387 705 c 3
387 616 m 3
 213.630362085 616 115 485.537109375 115 346 c 3
 115 204.395507813 213.974591357 72 388 72 c 3
 560.713867188 72 659 204.878703096 659 347 c 3
 659 486.020305266 560.369637915 616 387 616 c 3
EndSplineSet
EndChar

StartChar: registered
Encoding: 109 174 181
Width: 774
VWidth: 0
Flags: HMW
LayerCount: 3
Fore
SplineSet
387 705 m 7
 620.419921875 705 756 538.086914062 756 346 c 7
 756 151.690429688 620.419921875 -17 387 -17 c 7
 153.580078125 -17 18 151.690429688 18 346 c 7
 18 538.086914062 153.580078125 705 387 705 c 7
387 616 m 7
 213.630362085 616 115 485.537109375 115 346 c 7
 115 204.395507813 213.974591357 72 388 72 c 7
 560.713867188 72 659 204.878703096 659 347 c 7
 659 486.020305266 560.369637915 616 387 616 c 7
418.91015625 361.66015625 m 1
 418.91015625 294.16015625 l 1
 319.009765625 294.16015625 l 1
 319.009765625 361.66015625 l 1
 418.91015625 361.66015625 l 1
410.809570312 531.759765625 m 1
 394.0703125 460.48046875 l 1
 319.009765625 460.48046875 l 1
 319.009765625 531.759765625 l 1
 410.809570312 531.759765625 l 1
253.129882812 160.240234375 m 1
 253.129882812 531.759765625 l 1
 347.08984375 531.759765625 l 1
 347.08984375 160.240234375 l 1
 253.129882812 160.240234375 l 1
410.809570312 531.759765625 m 1
 494.90234375 531.759765625 539.870117188 481.571289062 539.870117188 413.5 c 3
 539.870117188 346.594726562 497.2890625 294.16015625 399.469726562 294.16015625 c 1
 394.0703125 361.66015625 l 1
 429.795898438 361.66015625 445.370117188 383.54296875 445.370117188 411.879882812 c 3
 445.370117188 438.807617188 429.795898438 460.48046875 394.0703125 460.48046875 c 1
 410.809570312 531.759765625 l 1
437.809570312 160.240234375 m 1
 359.509765625 330.879882812 l 1
 460.490234375 330.879882812 l 1
 539.870117188 160.240234375 l 1
 437.809570312 160.240234375 l 1
EndSplineSet
EndChar

StartChar: dagger
Encoding: 299 8224 182
Width: 397
VWidth: 0
Flags: HMW
LayerCount: 3
Fore
SplineSet
146 -125 m 1
 146 688 l 1
 261 688 l 1
 261 -125 l 1
 146 -125 l 1
22 503 m 1
 393 503 l 1
 393 396 l 1
 2 396 l 1
 22 503 l 1
EndSplineSet
Validated: 5
EndChar

StartChar: section
Encoding: 102 167 183
Width: 510
VWidth: 0
Flags: HMW
LayerCount: 3
Fore
SplineSet
275 348 m 1
 207.61225103 348 165 328.680457482 165 285 c 3
 165 244.202001284 192 224.119675456 252 199 c 2
 310 175 l 2
 407 135.103863731 463 99.2349790012 463 10 c 3
 463 -111.850585938 375.717311314 -175 237 -175 c 3
 169 -175 102.844044605 -157.93877551 60 -131 c 1
 60 -3 l 1
 112.468183433 -38.3230769231 178.054357551 -59 246 -59 c 3
 292.495615983 -59 329 -40.9043810614 329 -2 c 3
 329 29.9541015625 304.039170984 41.0928497409 245 66 c 2
 181 93 l 2
 100.061554404 127.145906736 33 159.092322308 33 270 c 3
 33 361.395637516 98.2895528243 418 211 418 c 1
 275 348 l 1
449 671 m 1
 420 553 l 1
 368.42372376 573.8 327.338054628 579 293 579 c 3
 231.639337225 579 196 562.440392127 196 527 c 3
 196 495.2265625 215.182741117 485.441624365 267 464 c 2
 325 440 l 2
 428.134010152 397.323857868 492 356.887716314 492 259 c 3
 492 154.933013091 424.918108259 101 316 101 c 1
 262 173 l 1
 322.158275463 173 360 193.148572198 360 241 c 3
 360 279.14110694 328 301.990168539 260 331 c 2
 196 358 l 2
 122 389.029545455 62 418.553960756 62 522 c 3
 62 629.899414062 149.6640625 698 301 698 c 3
 354.73828125 698 414.642578125 687.548387097 449 671 c 1
EndSplineSet
EndChar

StartChar: multiply
Encoding: 150 215 184
Width: 497
VWidth: 0
Flags: HMW
LayerCount: 3
Fore
SplineSet
456 441 m 1
 115 100 l 1
 41 174 l 1
 382 515 l 1
 456 441 l 1
382 100 m 1
 41 441 l 1
 115 515 l 1
 456 174 l 1
 382 100 l 1
EndSplineSet
Validated: 5
EndChar

StartChar: degree
Encoding: 111 176 185
Width: 320
VWidth: 0
Flags: HMW
LayerCount: 3
Fore
SplineSet
160 688 m 3
 247.2734375 688 297 628.127929688 297 553 c 3
 297 476.857421875 247.2734375 418 160 418 c 3
 72.7265625 418 23 476.857421875 23 553 c 3
 23 628.127929688 72.7265625 688 160 688 c 3
160 619 m 3
 118.666992188 619 98 587.14453125 98 553 c 3
 98 519.827148438 118.666992188 487 160 487 c 7
 201.333007812 487 222 519.827148438 222 553 c 3
 222 587.14453125 201.333007812 619 160 619 c 3
EndSplineSet
Validated: 1
EndChar

StartChar: guilsinglleft
Encoding: 304 8249 186
Width: 348
VWidth: 0
Flags: HMW
LayerCount: 3
Fore
SplineSet
152 253 m 5
 330 52 l 5
 203 52 l 1
 18 253 l 1
 152 253 l 5
330 455 m 5
 152 253 l 5
 18 253 l 1
 203 455 l 1
 330 455 l 5
EndSplineSet
EndChar

StartChar: endash
Encoding: 291 8211 190
Width: 515
VWidth: 0
Flags: HMW
LayerCount: 3
Fore
SplineSet
481 366 m 1
 481 252 l 5
 22 252 l 5
 53 366 l 1
 481 366 l 1
EndSplineSet
Validated: 1
EndChar

StartChar: emdash
Encoding: 292 8212 191
Width: 821
VWidth: 0
Flags: HMW
LayerCount: 3
Fore
SplineSet
787 366 m 1
 787 252 l 5
 22 252 l 5
 53 366 l 1
 787 366 l 1
EndSplineSet
Validated: 1
EndChar

StartChar: bullet
Encoding: 301 8226 192
Width: 344
VWidth: 0
Flags: HMW
LayerCount: 3
Fore
SplineSet
172 441.75 m 3
 256.418634259 441.75 308 382.877819548 308 306.75 c 3
 308 230.118913858 256.418634259 171.25 172 171.25 c 7
 87.5813657407 171.25 36 230.118913858 36 306.75 c 3
 36 382.877819548 87.5813657407 441.75 172 441.75 c 3
EndSplineSet
EndChar

StartChar: currency
Encoding: 99 164 195
Width: 570
VWidth: 0
Flags: HW
LayerCount: 3
Fore
SplineSet
365 489 m 1
 478 602 l 1
 548 531 l 1
 436 418 l 1
 365 489 l 1
199 181 m 1
 92 75 l 5
 22 146 l 5
 128 252 l 1
 199 181 l 1
428 266 m 1
 548 146 l 1
 478 75 l 1
 357 195 l 1
 428 266 l 1
139 413 m 1
 22 531 l 1
 92 602 l 1
 210 484 l 1
 139 413 l 1
285 558 m 3
 420 558 507 456 507 339 c 3
 507 221 420 119 285 119 c 3
 150 119 63 221 63 339 c 3
 63 456 150 558 285 558 c 3
285 459 m 3
 217 459 170 403 170 339 c 3
 170 275 217 218 285 218 c 3
 353 218 400 275 400 339 c 3
 400 403 353 459 285 459 c 3
EndSplineSet
Validated: 5
EndChar

StartChar: brokenbar
Encoding: 101 166 196
Width: 231
VWidth: 0
Flags: HW
AnchorPoint: "Top" 296 744 basechar 0
LayerCount: 3
Fore
SplineSet
58 367 m 5
 58 718 l 1
 173 718 l 1
 173 367 l 5
 58 367 l 5
173 249 m 1
 173 -125 l 1
 58 -125 l 1
 58 249 l 1
 173 249 l 1
EndSplineSet
EndChar

StartChar: Thorn
Encoding: 157 222 199
Width: 562
VWidth: 0
Flags: HW
LayerCount: 3
Fore
SplineSet
322 262 m 1
 322 141 l 1
 140 141 l 1
 140 262 l 1
 322 262 l 1
332 568 m 1
 322 447 l 1
 140 447 l 1
 140 568 l 1
 332 568 l 1
332 568 m 1
 475.459077592 568 549 476.690429688 549 361 c 3
 549 234.114257812 472.039874862 141 322 141 c 1
 322 262 l 1
 385.372930113 262 413 302.958007812 413 356 c 3
 413 406.419921875 385.372930113 447 322 447 c 1
 332 568 l 1
58 0 m 1
 58 688 l 1
 192 688 l 1
 192 0 l 1
 58 0 l 1
EndSplineSet
EndChar

StartChar: divide
Encoding: 182 247 200
Width: 483
VWidth: 0
Flags: HW
LayerCount: 3
Fore
SplineSet
244 218.5 m 3
 286.609375 218.5 313 190.770507812 313 151.5 c 7
 313 111.810546875 286.609375 84 244 84 c 3
 201.390625 84 175 111.810546875 175 151.5 c 3
 175 190.770507812 201.390625 218.5 244 218.5 c 3
244 543 m 3
 286.608924279 543 313 514.693359375 313 476 c 3
 313 436.889648438 286.608924279 408.5 244 408.5 c 3
 202.964361236 408.5 175 434.315429688 175 476 c 3
 175 514.693359375 201.391075721 543 244 543 c 3
41 362 m 1
 459 362 l 1
 459 265 l 1
 16 265 l 1
 41 362 l 1
EndSplineSet
EndChar

StartChar: thorn
Encoding: 189 254 201
Width: 602
VWidth: 0
Flags: HW
LayerCount: 3
Fore
SplineSet
343 -12 m 3
 223.198242188 -12 150 76.8896484375 150 188 c 1
 150 314 l 1
 150 425.15234375 222.421875 515 344 515 c 3
 490.671875 515 580 400.303710938 580 251 c 3
 580 102.69140625 490.673828125 -12 343 -12 c 3
315 99 m 7
 403.26953125 99 450 166.893333333 450 251 c 3
 450 335.099337748 403.26953125 404 315 404 c 3
 226.73046875 404 180 335.099337748 180 251 c 3
 180 166.893333333 226.73046875 99 315 99 c 7
181 718 m 1
 181 301 l 1
 180 301 l 1
 180 201 l 1
 181 201 l 1
 181 -165 l 1
 52 -165 l 1
 52 718 l 1
 181 718 l 1
EndSplineSet
EndChar

StartChar: Dcroat
Encoding: 203 272 214
Width: 707
VWidth: 0
Flags: HW
LayerCount: 3
Fore
SplineSet
351 298.916992188 m 1
 -5 298.916992188 l 1
 17 406.833984375 l 5
 351 406.916992188 l 5
 351 298.916992188 l 1
EndSplineSet
Refer: 0 68 N 1 0 0 1 19 0 2
EndChar

StartChar: dcroat
Encoding: 204 273 215
Width: 617
VWidth: 0
Flags: HW
LayerCount: 3
Fore
SplineSet
296 660 m 5
 610 660 l 5
 610 568 l 5
 278 568 l 5
 296 660 l 5
EndSplineSet
Refer: 36 100 N 1 0 0 1 0 0 2
EndChar

StartChar: Lslash
Encoding: 231 321 241
Width: 518
VWidth: 0
Flags: HW
LayerCount: 3
Fore
SplineSet
354 532 m 5
 354 420 l 1
 -1 240 l 1
 -1 352 l 1
 354 532 l 5
EndSplineSet
Refer: 11 76 N 1 0 0 1 5 0 2
EndChar

StartChar: lslash
Encoding: 232 322 242
Width: 260
VWidth: 0
Flags: HW
LayerCount: 3
Fore
SplineSet
264 515 m 5
 264 403 l 5
 -1 270 l 5
 -1 382 l 5
 264 515 l 5
EndSplineSet
Refer: 30 108 S 1 0 0 1 11 -2 2
EndChar

StartChar: florin
Encoding: 276 402 280
Width: 345
VWidth: 0
Flags: HW
LayerCount: 3
Fore
SplineSet
22 503 m 1
 338 503 l 1
 338 396 l 1
 2 396 l 1
 22 503 l 1
81 541 m 2
 81 693 190 723 263 723 c 3
 291 723 314.419596355 718 329 712 c 1
 350 601 l 1
 333.43909842 606.5 311.356483477 612 286 612 c 3
 245.888888889 612 210 594.787878788 210 541 c 2
 210 20 l 1
 81 17 l 1
 81 541 l 2
210 20 m 17
 210 -117 143 -170 47 -170 c 3
 20 -170 -7 -165 -21 -158 c 1
 -21 -51 l 1
 -7.66666666667 -55 5 -57 19 -57 c 3
 59 -57 81 -31 81 17 c 9
 210 20 l 17
EndSplineSet
EndChar

StartChar: uni02C9
Encoding: 283 713 285
Width: 365
VWidth: 0
Flags: HMW
AnchorPoint: "Top" 182 573 mark 0
LayerCount: 3
Fore
SplineSet
13 581 m 1
 37 672 l 5
 348 672 l 1
 348 581 l 1
 13 581 l 1
EndSplineSet
EndChar

StartChar: breve
Encoding: 284 728 286
Width: 344
VWidth: 0
Flags: HMW
AnchorPoint: "Top" 172 535 mark 0
LayerCount: 3
Fore
SplineSet
240 688 m 1
 331 688 l 1
 331 580.65060241 258.982352941 526 172 526 c 19
 85.0176470588 526 13 580.65060241 13 688 c 1
 104 688 l 1
 104 636.762845849 127 601 172 601 c 3
 217 601 240 636.762845849 240 688 c 1
EndSplineSet
EndChar

StartChar: dotaccent
Encoding: 285 729 287
Width: 233
VWidth: 0
Flags: HMW
AnchorPoint: "Top" 116 552 mark 0
LayerCount: 3
Fore
SplineSet
50 552 m 5
 50 678 l 5
 183 678 l 1
 183 552 l 1
 50 552 l 5
EndSplineSet
EndChar

StartChar: ogonek
Encoding: 287 731 288
Width: 236
VWidth: 0
Flags: HW
AnchorPoint: "Ogonek" 100 0 mark 0
LayerCount: 3
Fore
SplineSet
97 22 m 1
 151 22 l 1
 132 -9 125 -36 125 -54 c 3
 125 -74 136 -85 160 -85 c 3
 180 -85 209 -77 226 -67 c 1
 226 -153 l 1
 208 -166 173 -175 139 -175 c 3
 62 -175 25 -134 25 -84 c 3
 25 -39 55 -5 97 22 c 1
EndSplineSet
EndChar

StartChar: hungarumlaut
Encoding: 289 733 289
Width: 381
VWidth: 0
Flags: HW
AnchorPoint: "Top" 156 522 mark 0
LayerCount: 3
Fore
SplineSet
87 522 m 1
 5 522 l 25
 83 688 l 1
 200 688 l 1
 87 522 l 1
263 522 m 1
 181 522 l 25
 259 688 l 1
 376 688 l 1
 263 522 l 1
EndSplineSet
Validated: 1
EndChar

StartChar: pi
Encoding: 290 960 290
Width: 604
VWidth: 0
Flags: HW
LayerCount: 3
Fore
SplineSet
599 503 m 1
 599 389 l 1
 0 389 l 1
 31 503 l 1
 599 503 l 1
381 0 m 1
 381 453 l 1
 510 453 l 1
 510 0 l 1
 381 0 l 1
102 0 m 1
 102 453 l 1
 231 453 l 1
 231 0 l 1
 102 0 l 1
EndSplineSet
EndChar

StartChar: daggerdbl
Encoding: 300 8225 291
Width: 397
VWidth: 0
Flags: HMW
LayerCount: 3
Fore
SplineSet
22 233 m 5
 393 233 l 5
 393 126 l 5
 2 126 l 5
 22 233 l 5
146 -125 m 1
 146 688 l 1
 261 688 l 1
 261 -125 l 1
 146 -125 l 1
22 503 m 1
 393 503 l 1
 393 396 l 1
 2 396 l 1
 22 503 l 1
EndSplineSet
EndChar

StartChar: perthousand
Encoding: 303 8240 292
Width: 1127
VWidth: 0
Flags: HW
LayerCount: 3
Fore
SplineSet
950 369 m 3
 1053 369 1109 295 1109 183 c 3
 1109 70 1053 -5 950 -5 c 3
 847 -5 792 70 792 183 c 3
 792 295 847 369 950 369 c 3
950 284 m 3
 913 284 893 252 893 183 c 3
 893 113 913 80 950 80 c 3
 988 80 1008 113 1008 183 c 3
 1008 252 988 284 950 284 c 3
604 369 m 3
 707 369 763 295 763 183 c 3
 763 70 707 -5 604 -5 c 3
 501 -5 446 70 446 183 c 3
 446 295 501 369 604 369 c 3
604 284 m 3
 567 284 547 252 547 183 c 3
 547 113 567 80 604 80 c 3
 642 80 662 113 662 183 c 3
 662 252 642 284 604 284 c 3
181 693 m 3
 285 693 340 619 340 507 c 3
 340 394 285 319 181 319 c 3
 78 319 23 394 23 507 c 3
 23 619 78 693 181 693 c 3
181 608 m 3
 144 608 124 576 124 507 c 3
 124 437 144 404 181 404 c 3
 219 404 239 437 239 507 c 3
 239 576 219 608 181 608 c 3
EndSplineSet
Refer: 293 8260 S 1 0 0 1 101 0 2
Validated: 1
EndChar

StartChar: fraction
Encoding: 306 8260 293
Width: 584
VWidth: 0
Flags: HW
LayerCount: 3
Fore
SplineSet
-5 0 m 5
 473 688 l 5
 589 688 l 5
 111 0 l 5
 -5 0 l 5
EndSplineSet
Validated: 1
EndChar

StartChar: uni20BA
Encoding: 308 8378 294
Width: 529
VWidth: 0
Flags: HW
LayerCount: 3
Fore
SplineSet
26 309 m 1
 406 383 l 1
 406 298 l 1
 10 221 l 1
 26 309 l 1
26 462 m 1
 406 536 l 1
 406 451 l 1
 10 374 l 1
 26 462 l 1
97 0 m 1
 97 688 l 1
 231 688 l 1
 231 30 l 1
 167 0 l 25
 97 0 l 1
142 0 m 1
 142 122 l 1
 211 122 l 2
 327.131023006 122 418.767745768 137.893685927 490 185 c 5
 519 69 l 5
 454.548481687 21.5776068582 338.254562326 -1.53210777398e-14 194 0 c 2
 142 0 l 1
EndSplineSet
EndChar

StartChar: uni20BD
Encoding: 309 8381 295
Width: 591
VWidth: 0
Flags: HW
LayerCount: 3
Fore
SplineSet
351 381 m 1
 352 268 l 1
 169 268 l 1
 169 381 l 1
 351 381 l 1
358 688 m 1
 351 567 l 1
 169 567 l 1
 169 688 l 1
 358 688 l 1
87 0 m 1
 87 688 l 1
 221 688 l 1
 221 0 l 1
 87 0 l 1
358 688 m 1
 503.442382812 688 578 596.555923245 578 481 c 3
 578 358.942334335 512 268 352 268 c 1
 351 381 l 1
 415.069335938 381 443 421.958007812 443 475 c 3
 443 525.973986951 415.069335938 567 351 567 c 1
 358 688 l 1
28 208 m 5
 459 209 l 5
 430 103 l 5
 8 102 l 5
 28 208 l 5
28 380 m 1
 319 381 l 1
 290 272 l 1
 8 271 l 1
 28 380 l 1
EndSplineSet
EndChar

StartChar: uni2113
Encoding: 310 8467 296
Width: 411
VWidth: 0
Flags: HW
LayerCount: 3
Fore
SplineSet
76 541 m 1
 76 614.23046875 110 733 247 733 c 3
 344 733 395 664 395 579 c 3
 395 351.265625 149 269 -3 269 c 1
 18 376 l 1
 134 376 287 443 287 564 c 3
 287 588 276.438476562 613 245 613 c 3
 220.64453125 613 205 591 205 551 c 1
 76 541 l 1
76 179 m 2
 76 541 l 1
 205 551 l 1
 205 190 l 2
 205 130.289156627 237 106 282 106 c 3
 313 106 342 116.782608696 367 132 c 1
 367 20 l 1
 344.638888889 7.35574794716 303 -6 256 -6 c 3
 138 -6 76 63.1208791209 76 179 c 2
EndSplineSet
EndChar

StartChar: uni2126
Encoding: 312 8486 298
Width: 738
VWidth: 0
Flags: HW
LayerCount: 3
Fore
SplineSet
542 0 m 1
 423 0 l 1
 423 180 l 1
 542 180 l 1
 542 0 l 1
702 0 m 1
 483 0 l 1
 483 119 l 1
 671 119 l 1
 702 0 l 1
196 0 m 1
 196 180 l 1
 315 180 l 1
 315 0 l 1
 196 0 l 1
36 0 m 1
 67 119 l 1
 255 119 l 1
 255 0 l 1
 36 0 l 1
369 705 m 3
 590.211914062 705 708 543.703125 708 388 c 7
 708 274.646526681 624.501953125 121 463 121 c 1
 423 180 l 1
 540.224973958 224.514648438 572 304.306640625 572 384 c 3
 572 487.08495122 502.160443474 587 369 587 c 3
 235.839556526 587 166 487.08495122 166 384 c 3
 166 304.306640625 197.775026042 224.514648438 315 180 c 1
 275 121 l 1
 113.498046875 121 30 274.646526681 30 388 c 7
 30 543.703125 147.788085938 705 369 705 c 3
EndSplineSet
EndChar

StartChar: estimated
Encoding: 313 8494 299
Width: 760
VWidth: 0
Flags: HW
LayerCount: 3
Fore
SplineSet
685 303 m 1
 75 303 l 1
 75 387 l 1
 685 387 l 1
 685 303 l 1
547 346 m 1
 547 628 l 1
 722 346 l 1
 547 346 l 1
213 628 m 1
 213 616 l 0
 213 60 l 1
 38 346 l 1
 213 628 l 1
716.702329643 173 m 1
 661.177286449 61.4612146858 548.237613289 -17 387 -17 c 3
 155.580078125 -17 18 151.690429688 18 346 c 3
 18 538.086914062 153.783600102 705 382 705 c 3
 597.708527372 705 742 538.086914062 742 346 c 3
 742 331.504287655 741.262299402 317.151154224 739.798828125 303 c 1
 631.962890625 303 l 5
 633.979213348 317.141162685 635 331.517400567 635 346 c 7
 635 501.964574372 530.567331286 616 382 616 c 3
 218.191187705 616 125 485.537109375 125 346 c 3
 125 204.395507813 220.34914845 72 388 72 c 3
 480.693497547 72 551.226564047 112.589841458 595.658203125 173 c 1
 716.702329643 173 l 1
EndSplineSet
EndChar

StartChar: partialdiff
Encoding: 314 8706 300
Width: 546
VWidth: 0
Flags: HW
LayerCount: 3
Fore
SplineSet
520 330 m 1
 520 96 410.216796875 -12 247 -12 c 3
 106.778320312 -12 9 87 9 217 c 3
 9 354.012695312 108.845549365 444 234 444 c 3
 328 444 400 387.811523438 400 309 c 1
 371 216 l 1
 371 277.142578125 322.150390625 323 256 323 c 3
 189.849609375 323 141 277.142578125 141 216 c 3
 141 153.859375 189.849609375 107 256 107 c 3
 322.150390625 107 371 153.859375 371 216 c 1
 393 339 l 1
 393 464.713867188 351 579 202 579 c 3
 139.807692308 579 89.7290322581 559.930232558 48 538 c 1
 81 673 l 1
 110.308082217 688.057908078 156.576923077 700 212 700 c 3
 433 700 520 528 520 330 c 1
EndSplineSet
EndChar

StartChar: uni2206
Encoding: 315 8710 301
Width: 619
VWidth: 0
Flags: HW
LayerCount: 3
Fore
SplineSet
486 0 m 5
 259 688 l 1
 385 688 l 1
 616 24 l 1
 616 0 l 1
 486 0 l 5
3 0 m 1
 3 24 l 1
 239 688 l 5
 359 688 l 1
 129 0 l 1
 3 0 l 1
87 122 m 1
 533 122 l 1
 533 0 l 1
 87 0 l 1
 87 122 l 1
EndSplineSet
EndChar

StartChar: product
Encoding: 316 8719 302
Width: 670
VWidth: 0
Flags: HW
LayerCount: 3
Fore
SplineSet
478 -125 m 5
 478 688 l 5
 612 688 l 5
 612 -125 l 5
 478 -125 l 5
58 -125 m 5
 58 688 l 5
 192 688 l 5
 192 -125 l 5
 58 -125 l 5
123 566 m 5
 123 688 l 5
 547 688 l 5
 547 566 l 5
 123 566 l 5
EndSplineSet
EndChar

StartChar: summation
Encoding: 317 8721 303
Width: 578
VWidth: 0
Flags: HW
LayerCount: 3
Fore
SplineSet
275 289 m 1
 15 664 l 1
 15 688 l 1
 155 688 l 5
 441 295 l 1
 275 289 l 1
70 -125 m 1
 130 -3 l 1
 551 -3 l 1
 583 -125 l 1
 70 -125 l 1
5 -125 m 1
 5 -101 l 1
 275 289 l 1
 441 295 l 1
 139 -125 l 5
 5 -125 l 1
140 566 m 1
 80 688 l 1
 562 688 l 1
 530 566 l 1
 140 566 l 1
EndSplineSet
EndChar

StartChar: minus
Encoding: 318 8722 304
Width: 463
VWidth: 0
Flags: HW
LayerCount: 3
Fore
SplineSet
44 367 m 1
 439 367 l 5
 439 259 l 5
 16 259 l 1
 44 367 l 1
EndSplineSet
Validated: 1
EndChar

StartChar: uni2219
Encoding: 320 8729 306
Width: 256
VWidth: 0
Flags: HW
LayerCount: 3
Fore
SplineSet
128 404.75 m 3
 182.783203125 404.75 218 367.571289062 218 316.75 c 3
 218 265.471679688 182.783203125 228.25 128 228.25 c 3
 73.216796875 228.25 38 265.471679688 38 316.75 c 3
 38 367.571289062 73.216796875 404.75 128 404.75 c 3
EndSplineSet
Validated: 1
EndChar

StartChar: radical
Encoding: 321 8730 307
Width: 556
VWidth: 0
Flags: HW
LayerCount: 3
Fore
SplineSet
42 413.916992188 m 1
 143 413.916992188 l 1
 143 293 l 1
 10 292.916992188 l 1
 42 413.916992188 l 1
254 0 m 1
 416 688 l 1
 538 688 l 1
 373 0 l 1
 254 0 l 1
233 0 m 1
 48.1376953125 390 l 1
 42 414 l 1
 176 414 l 1
 351 0 l 1
 233 0 l 1
EndSplineSet
EndChar

StartChar: infinity
Encoding: 322 8734 308
Width: 772
VWidth: 0
Flags: HW
LayerCount: 3
Fore
SplineSet
30 302 m 1
 149 302 l 1
 149 258 176 221 227 221 c 3
 277.087719298 221 297.317152452 252.25163179 339 319 c 0
 412.688333401 437 450.028037383 494 555 494 c 3
 674 494 742 402 742 303 c 1
 623 303 l 1
 623 346 596 384 545 384 c 3
 493.912280702 384 470.975575215 350.623418501 433 287 c 0
 364.358747256 172 323.990654206 111 217 111 c 3
 98 111 30 204 30 302 c 1
30 302 m 1
 30 401 98 494 217 494 c 3
 324.536231884 494 365.593595863 432 429 322 c 0
 467.075067622 255.945829361 492.272727273 221 545 221 c 3
 596 221 623 259 623 303 c 1
 742 303 l 1
 742 204 674 111 555 111 c 3
 453.564593301 111 414.679887601 160 343 284 c 0
 309.132847298 342.58724219 281.588235294 384 227 384 c 3
 176 384 149 347 149 302 c 1
 30 302 l 1
EndSplineSet
EndChar

StartChar: integral
Encoding: 323 8747 309
Width: 348
VWidth: 0
Flags: HW
LayerCount: 3
Fore
SplineSet
196 20 m 6
 196 -117 129 -170 33 -170 c 3
 6 -170 -21 -165 -35 -158 c 1
 -35 -51 l 1
 -21.6666666667 -55 -9 -57 5 -57 c 3
 45 -57 67 -31 67 17 c 6
 67 546 l 2
 67 689 167.847858297 723 239 723 c 3
 256.539778646 723 270.742078993 720.727539062 280 718 c 1
 300 608 l 1
 290.943237305 610 278.866699219 612 265 612 c 3
 228.582911532 612 196 594 196 546 c 2
 196 20 l 6
EndSplineSet
EndChar

StartChar: approxequal
Encoding: 324 8776 310
Width: 495
VWidth: 0
Flags: HW
LayerCount: 3
Fore
SplineSet
39 232 m 1
 65.302734375 256.700195312 107.0234375 289 156 289 c 3
 192.666992188 289 219.127929688 275.260742188 251 253.934570312 c 0
 284 231.854492188 309.630859375 219 344 219 c 3
 385.4140625 219 419.345703125 244.650390625 456 276 c 1
 456 168 l 5
 433.307617188 140.450195312 390.646484375 111 338 111 c 7
 301.411132812 111 278.735351562 123.258789062 243 146.244140625 c 4
 208.428710938 168.48046875 185.720703125 181 151 181 c 7
 102.859375 181 69.826171875 151.549804688 39 124 c 5
 39 232 l 1
39 425 m 1
 65.302734375 449.700195312 107.0234375 482 156 482 c 3
 192.666992188 482 219.127929688 468.260742188 251 446.934570312 c 0
 284 424.854492188 309.630859375 412 344 412 c 3
 385.4140625 412 419.345703125 437.650390625 456 469 c 1
 456 361 l 1
 433.307617188 333.450195312 390.646484375 304 338 304 c 3
 301.411132812 304 278.735351562 316.258789062 243 339.244140625 c 0
 208.428710938 361.48046875 185.720703125 374 151 374 c 3
 102.859375 374 69.826171875 344.549804688 39 317 c 1
 39 425 l 1
EndSplineSet
EndChar

StartChar: notequal
Encoding: 325 8800 311
Width: 504
VWidth: 0
Flags: HW
LayerCount: 3
Fore
SplineSet
394 558 m 1
 211 48 l 5
 118 48 l 1
 301 558 l 1
 394 558 l 1
EndSplineSet
Refer: 91 61 N 1 0 0 1 0 0 2
EndChar

StartChar: lessequal
Encoding: 326 8804 312
Width: 459
VWidth: 0
Flags: HW
LayerCount: 3
Fore
SplineSet
421 81 m 5
 35 224 l 5
 35 123 l 1
 421 -20 l 1
 421 81 l 5
421 261 m 5
 35 394 l 5
 35 301 l 5
 421 152 l 5
 421 261 l 5
421 450 m 5
 421 559 l 5
 35 410 l 5
 35 317 l 5
 421 450 l 5
EndSplineSet
EndChar

StartChar: greaterequal
Encoding: 327 8805 313
Width: 459
VWidth: 0
Flags: HW
LayerCount: 3
Fore
SplineSet
38 81 m 5
 424 224 l 5
 424 123 l 1
 38 -20 l 1
 38 81 l 5
38 258 m 5
 424 394 l 5
 424 301 l 5
 38 152 l 5
 38 258 l 5
38 450 m 5
 38 559 l 5
 424 410 l 5
 424 317 l 5
 38 450 l 5
EndSplineSet
EndChar

StartChar: lozenge
Encoding: 328 9674 314
Width: 602
VWidth: 0
Flags: HW
LayerCount: 3
Fore
SplineSet
154 344 m 1
 367 0 l 1
 231 0 l 1
 10 344 l 1
 154 344 l 1
592 344 m 1
 371 0 l 1
 235 0 l 1
 448 344 l 1
 592 344 l 1
448 344 m 1
 235 688 l 1
 371 688 l 1
 592 344 l 1
 448 344 l 1
10 344 m 1
 231 688 l 1
 367 688 l 1
 154 344 l 1
 10 344 l 1
EndSplineSet
EndChar

StartChar: uni00B5
Encoding: 116 181 318
Width: 536
VWidth: 0
Flags: HW
LayerCount: 3
Fore
SplineSet
484 503 m 1
 484 0 l 1
 361 0 l 1
 360 143 l 1
 355 143 l 1
 355 503 l 1
 484 503 l 1
372 150 m 1
 372 55.2075471698 316 -7 229 -7 c 3
 144 -7 91 72.0243902439 91 155 c 1
 175 202 l 1
 175 156.455028132 193.312213319 123.469292328 231 112.747070312 c 0
 239.643301001 110.288042658 249.305692078 109 260 109 c 3
 320.1015625 109 355 147.6484375 355 219 c 1
 372 150 l 1
46 -165 m 1
 46 503 l 1
 175 503 l 1
 175 -165 l 1
 46 -165 l 1
EndSplineSet
Validated: 5
EndChar

StartChar: less
Encoding: 28 60 319
Width: 446
VWidth: 0
Flags: HW
LayerCount: 3
Fore
SplineSet
411 147 m 5
 411 28 l 5
 25 217 l 5
 25 330 l 5
 411 147 l 5
411 405 m 5
 25 222 l 5
 25 335 l 5
 411 524 l 5
 411 405 l 5
EndSplineSet
Validated: 5
EndChar

StartChar: asciicircum
Encoding: 62 94 321
Width: 505
VWidth: 0
Flags: HW
LayerCount: 3
Fore
SplineSet
126 352 m 5
 300 688 l 5
 180 688 l 5
 4 352 l 5
 126 352 l 5
378 352 m 5
 500 352 l 5
 324 688 l 5
 204 688 l 5
 378 352 l 5
EndSplineSet
Validated: 5
EndChar

StartChar: asciitilde
Encoding: 94 126 322
Width: 509
VWidth: 0
Flags: HW
LayerCount: 3
Fore
SplineSet
494 389 m 1
 494 283.38229583 429 218 338 218 c 3
 293.557617188 218 263.3671875 242.3045836 233 267 c 0
 198.816628325 294.798840359 184.62890625 306 164 306 c 3
 133 306 110.677734375 284.333007812 107 215 c 1
 15 232 l 1
 15 340.087890625 81 407 171 407 c 3
 213.413085938 407 245.832454427 386.023053178 278 358 c 0
 312.206054688 328.201080858 323.373046875 319 344 319 c 3
 376 319 399.099609375 339.714055842 402 406 c 1
 494 389 l 1
EndSplineSet
Validated: 1
EndChar

StartChar: logicalnot
Encoding: 107 172 323
Width: 495
VWidth: 0
Flags: HW
LayerCount: 3
Fore
SplineSet
349 129 m 5
 349 366 l 1
 459 366 l 1
 459 129 l 5
 349 129 l 5
43 414 m 1
 459 414 l 1
 459 310 l 1
 16 310 l 1
 43 414 l 1
EndSplineSet
Validated: 5
EndChar

StartChar: plusminus
Encoding: 112 177 326
Width: 487
VWidth: 0
Flags: HW
LayerCount: 3
Fore
SplineSet
50 132 m 1
 452 132 l 1
 452 35 l 1
 25 35 l 1
 50 132 l 1
191 177 m 1
 191 569 l 1
 298 569 l 1
 298 177 l 1
 191 177 l 1
50 427 m 5
 452 427 l 5
 452 330 l 5
 25 330 l 5
 50 427 l 5
EndSplineSet
Validated: 5
EndChar

StartChar: paragraph
Encoding: 117 182 327
Width: 595
VWidth: 0
Flags: HW
LayerCount: 3
Fore
SplineSet
537 -125 m 1
 423 -125 l 1
 423 688 l 1
 537 688 l 1
 537 -125 l 1
241 688 m 1
 304 688 l 1
 304 261 l 1
 235 261 l 1
 89.5576171875 261 15 352.309570312 15 472 c 3
 15 594.885742188 91.62109375 688 241 688 c 1
349 -125 m 5
 235 -125 l 1
 235 648 l 1
 277 688 l 25
 349 688 l 5
 349 -125 l 5
EndSplineSet
EndChar

StartChar: eth
Encoding: 175 240 331
Width: 555
VWidth: 0
Flags: HW
LayerCount: 3
Fore
SplineSet
151 629 m 1
 458 705 l 1
 458 613 l 1
 132 532 l 1
 151 629 l 1
285 718 m 1
 428.579101562 644.637786715 533 496 533 308 c 1
 533 96 423.216796875 -12 268 -12 c 3
 117.778320312 -12 22 99.9697265625 22 247 c 3
 22 398.499023438 121.401367188 497 246 497 c 3
 350 497 436 413.478572512 436 282 c 1
 392 245 l 1
 392 327.28515625 341.451196702 382 273 382 c 3
 204.548803298 382 154 327.28515625 154 245 c 3
 154 161.756835938 204.548803298 106 273 106 c 3
 341.451196702 106 392 161.756835938 392 245 c 1
 419 331 l 1
 419 493.958125803 298.742957746 621.33933162 132 710 c 1
 132 718 l 1
 285 718 l 1
EndSplineSet
EndChar

StartChar: a.ss01
Encoding: 333 -1 333
Width: 602
VWidth: 0
Flags: HW
AnchorPoint: "Top" 295 574 basechar 0
AnchorPoint: "Ogonek" 446 -1 basechar 0
LayerCount: 3
Fore
SplineSet
254 515 m 3
 378.801757812 515 452 426.110351562 452 315 c 1
 452 189 l 1
 452 77.84765625 379.578125 -12 252 -12 c 3
 111.328125 -12 22 102.696289062 22 252 c 3
 22 400.30859375 111.326171875 515 254 515 c 3
287 405 m 3
 198.73046875 405 152 336.106445312 152 252 c 3
 152 167.900390625 198.73046875 98 287 98 c 7
 375.26953125 98 422 167.900390625 422 252 c 3
 422 336.106445312 375.26953125 405 287 405 c 3
550 0 m 1
 425 0 l 1
 424 142 l 1
 421 142 l 1
 421 200 l 1
 422 200 l 1
 422 300 l 1
 421 300 l 1
 421 359 l 1
 424 359 l 1
 425 503 l 1
 550 503 l 1
 550 0 l 1
EndSplineSet
EndChar

StartChar: commasubnosp
Encoding: 343 806 343
Width: 230
VWidth: 0
Flags: HW
AnchorPoint: "Bottom" 123 -41 mark 0
LayerCount: 3
Fore
SplineSet
58 -171 m 3
 93.0908203125 -171 108 -160.998046875 108 -138 c 2
 108 -126 l 1
 49 -107 l 5
 49 -41 l 5
 195 -41 l 1
 195 -126 l 2
 195 -196.939034598 148.848450742 -237 79 -237 c 3
 65.0865625 -237 45.758125 -234.75 31 -228 c 1
 25 -165 l 1
 35.2416015625 -169 47.7583984375 -171 58 -171 c 3
EndSplineSet
EndChar

StartChar: .notdef
Encoding: 344 -1 344
Width: 640
VWidth: 0
Flags: HW
LayerCount: 3
Fore
SplineSet
510 688 m 1
 510 589 l 1
 130 589 l 1
 130 688 l 1
 510 688 l 1
466 688 m 1
 582 688 l 1
 582 0 l 1
 466 0 l 1
 466 688 l 1
174 0 m 1
 58 0 l 1
 58 688 l 1
 174 688 l 1
 174 0 l 1
130 0 m 1
 130 99 l 1
 510 99 l 1
 510 0 l 1
 130 0 l 1
EndSplineSet
EndChar
